<svg width="62" height="62" viewBox="0 0 62 62" fill="none" xmlns="http://www.w3.org/2000/svg">
<path d="M61 30.9951C61 31.6284 60.9802 32.2519 60.9406 32.8753C60.8417 34.4884 60.6141 36.0717 60.2677 37.6155C59.8619 39.4067 59.2979 41.1385 58.5952 42.7912C58.1004 43.9391 57.5364 45.0574 56.9129 46.1262C56.1806 47.383 55.3592 48.5705 54.4587 49.7086C53.9045 50.4112 53.3107 51.0841 52.6972 51.7274C52.0242 52.4399 51.3117 53.1128 50.5596 53.7561C49.8768 54.3399 49.1643 54.904 48.432 55.4285C45.7897 57.3088 42.8407 58.7833 39.6541 59.7333C38.6942 60.0203 37.7145 60.2677 36.715 60.4557C34.8644 60.812 32.9644 61 31.0049 61C30.5893 61 30.1836 61 29.7778 60.9703C20.0302 60.5844 11.4899 55.5374 6.29441 48.0064C2.94953 43.1771 1 37.3187 1 30.9951C1 14.429 14.429 1 30.9951 1C47.5611 1 60.9901 14.429 60.9901 30.9951H61Z" fill="white" stroke="#8D8E91" stroke-width="0.7" stroke-linecap="round" stroke-linejoin="round"/>
<path d="M47.5913 46.74C47.5913 45.404 46.5027 44.3154 45.1667 44.3154C43.8308 44.3154 42.7422 45.404 42.7422 46.74C42.7422 48.0759 43.8308 49.1645 45.1667 49.1645C46.5027 49.1645 47.5913 48.0759 47.5913 46.74Z" fill="#E1251B"/>
<path d="M39.7152 17.5563L40.4871 17.1803C41.1204 16.8735 41.8923 17.1209 42.2189 17.7443L42.6246 18.4964C42.8127 18.8527 43.159 19.1001 43.5549 19.1694L44.396 19.3178C45.0888 19.4366 45.5638 20.0897 45.4648 20.7923L45.3461 21.6434C45.2867 22.0392 45.4252 22.445 45.7023 22.7419L46.2961 23.3554C46.7909 23.8601 46.7909 24.6716 46.2961 25.1763L45.7023 25.7898C45.4252 26.0768 45.2867 26.4826 45.3461 26.8883L45.4648 27.7394C45.5638 28.442 45.0888 29.0951 44.396 29.2139L43.5549 29.3623C43.159 29.4316 42.8127 29.679 42.6246 30.0353L42.2189 30.7874C41.8824 31.4108 41.1204 31.6582 40.4871 31.3515L39.7152 30.9754C39.349 30.7973 38.9235 30.7973 38.5672 30.9754L37.7953 31.3515C37.162 31.6582 36.3901 31.4108 36.0635 30.7874L35.6578 30.0353C35.4698 29.679 35.1234 29.4316 34.7276 29.3623L33.8864 29.2139C33.1937 29.0951 32.7186 28.442 32.8176 27.7394L32.9364 26.8883C32.9957 26.4925 32.8572 26.0867 32.5801 25.7898L31.9863 25.1763C31.4915 24.6716 31.4915 23.8601 31.9863 23.3554L32.5801 22.7419C32.8572 22.4549 32.9957 22.0491 32.9364 21.6434L32.8176 20.7923C32.7186 20.0897 33.1937 19.4366 33.8864 19.3178L34.7276 19.1694C35.1234 19.1001 35.4698 18.8527 35.6578 18.4964L36.0635 17.7443C36.4 17.1209 37.162 16.8735 37.7953 17.1803L38.5672 17.5563C38.9334 17.7344 39.3589 17.7344 39.7152 17.5563Z" stroke="#8D8E91" stroke-width="0.7" stroke-linecap="round" stroke-linejoin="round"/>
<path d="M35.1328 24.2755C35.1328 24.5031 35.1526 24.7307 35.1922 24.9484C35.301 25.6214 35.588 26.2349 35.9938 26.7495C36.0729 26.8485 36.162 26.9474 36.2511 27.0464C36.3203 27.1157 36.3896 27.1849 36.4589 27.2443C36.4886 27.2641 36.5084 27.2938 36.5381 27.3136C36.5776 27.3532 36.6172 27.3829 36.6667 27.4225C36.7162 27.462 36.7756 27.5016 36.825 27.5412C37.4782 28.0063 38.2897 28.2834 39.1506 28.2834C39.2595 28.2834 39.3683 28.2834 39.4772 28.2735C40.4371 28.1943 41.308 27.7787 41.9611 27.1454C42.0304 27.0761 42.0997 27.0068 42.1689 26.9276C42.2778 26.8089 42.3768 26.6802 42.4658 26.5516C42.5252 26.4625 42.5846 26.3735 42.634 26.2844C42.9804 25.6906 43.1684 25.0078 43.1684 24.2755C43.1684 22.0588 41.3772 20.2676 39.1605 20.2676C36.9438 20.2676 35.1526 22.0588 35.1526 24.2755H35.1328Z" stroke="#8D8E91" stroke-width="0.7" stroke-linecap="round" stroke-linejoin="round"/>
<path d="M35.4105 29.7285L33.9062 34.2213L35.8954 33.2218L36.7959 35.1813L38.1319 31.2129" stroke="#8D8E91" stroke-width="0.7" stroke-linecap="round" stroke-linejoin="round"/>
<path d="M42.8717 29.7285L44.3759 34.2213L42.3868 33.2218L41.4862 35.1813L40.1602 31.2129" stroke="#8D8E91" stroke-width="0.7" stroke-linecap="round" stroke-linejoin="round"/>
<path d="M30.124 24.335H27.2344V51.7669H49.7579V24.335H47.749" stroke="#8D8E91" stroke-width="0.7" stroke-linecap="round" stroke-linejoin="round"/>
<path d="M26.3338 19.3374C29.8426 19.3374 32.687 16.493 32.687 12.9841C32.687 9.47532 29.8426 6.63086 26.3338 6.63086C22.8249 6.63086 19.9805 9.47532 19.9805 12.9841C19.9805 16.493 22.8249 19.3374 26.3338 19.3374Z" stroke="#8D8E91" stroke-width="0.7" stroke-linecap="round" stroke-linejoin="round"/>
<path d="M19.6648 31.3216V41.6927C19.6648 43.1375 18.4872 44.3152 17.0424 44.3152C15.5976 44.3152 14.4199 43.1375 14.4199 41.6927V31.0148C14.4199 28.1153 15.746 25.5324 17.8242 23.8402C17.8539 23.8105 17.8935 23.7907 17.9231 23.761C18.1112 23.6125 18.2992 23.474 18.4872 23.3454C18.6159 23.2563 18.7544 23.1672 18.893 23.0782C20.1893 22.2865 21.7034 21.8115 23.3264 21.7422H30.4813" stroke="#8D8E91" stroke-width="0.7" stroke-linecap="round" stroke-linejoin="round"/>
<path d="M18.5977 43.8008V53.8354" stroke="#8D8E91" stroke-width="0.7" stroke-linecap="round" stroke-linejoin="round"/>
</svg>
