<svg width="62" height="62" viewBox="0 0 62 62" fill="none" xmlns="http://www.w3.org/2000/svg">
<path d="M61 30.9901C61 39.0244 57.8437 46.3265 52.6887 51.7091C52.0158 52.4215 51.3034 53.0943 50.5514 53.7375C49.8687 54.3212 49.1563 54.8852 48.4241 55.4096C44.4861 58.2197 39.8456 60.1095 34.8094 60.7427C33.5627 60.9011 32.2863 60.9802 31 60.9802C24.3608 60.9802 18.2263 58.8232 13.2592 55.1722C10.558 53.1933 8.20317 50.7592 6.29354 47.9987C5.12599 46.3067 4.12665 44.4862 3.3252 42.5567C2.08839 39.6082 1.31662 36.4222 1.07916 33.0877C1.02968 32.3951 1 31.6926 1 30.9802C1 26.0033 2.21702 21.3034 4.36412 17.1675C5.26451 15.436 6.32322 13.8034 7.53034 12.2995C13.0317 5.42282 21.5013 1 31 1C47.5633 1 60.9901 14.4268 60.9901 30.9901H61Z" fill="white" stroke="#8D8E91" stroke-width="0.7" stroke-linejoin="bevel"/>
<path d="M16.1491 18.4932C16.1491 17.2465 15.1398 16.2373 13.8931 16.2373C12.6464 16.2373 11.6372 17.2465 11.6372 18.4932C11.6372 19.7399 12.6464 20.7492 13.8931 20.7492C15.1398 20.7492 16.1491 19.7399 16.1491 18.4932Z" fill="#E1251B"/>
<path d="M29.5945 40.1719C31.988 40.1719 33.9283 38.2316 33.9283 35.8382C33.9283 33.4447 31.988 31.5044 29.5945 31.5044C27.201 31.5044 25.2607 33.4447 25.2607 35.8382C25.2607 38.2316 27.201 40.1719 29.5945 40.1719Z" stroke="#8D8E91" stroke-width="0.7" stroke-linejoin="bevel"/>
<path d="M29.9615 41.7256L30.9212 49.4334L29.5954 50.967L28.2695 49.4334L29.2194 41.7256" stroke="#8D8E91" stroke-width="0.7" stroke-miterlimit="10"/>
<path d="M20.9478 56.0726V50.3733C20.9478 47.3951 22.4517 44.7731 24.7373 43.2197C26.1127 42.2797 27.7947 41.7256 29.5955 41.7256C31.3963 41.7256 33.0091 42.2599 34.3844 43.1702C34.8594 43.4868 35.3046 43.8529 35.7103 44.2586C37.2736 45.8219 38.2433 47.9789 38.2433 50.3733V53.8067" stroke="#8D8E91" stroke-width="0.7" stroke-linejoin="bevel"/>
<path d="M41.7165 39.163C43.4652 39.163 44.8827 37.7455 44.8827 35.9968C44.8827 34.2481 43.4652 32.8306 41.7165 32.8306C39.9679 32.8306 38.5503 34.2481 38.5503 35.9968C38.5503 37.7455 39.9679 39.163 41.7165 39.163Z" stroke="#8D8E91" stroke-width="0.7" stroke-linejoin="bevel"/>
<path d="M41.9834 40.2515L42.676 45.8715L41.7162 46.9896L40.7466 45.8715L41.4392 40.2515" stroke="#8D8E91" stroke-width="0.7" stroke-miterlimit="10"/>
<path d="M35.8379 44.308C36.3029 43.1207 37.1242 42.1016 38.173 41.3892C39.1822 40.6966 40.3992 40.3008 41.7152 40.3008C43.0312 40.3008 44.2086 40.6867 45.2079 41.3595C45.5543 41.5871 45.8808 41.8542 46.1776 42.151C47.3155 43.2889 48.0279 44.872 48.0279 46.6134" stroke="#8D8E91" stroke-width="0.7" stroke-linejoin="bevel"/>
<path d="M12.2402 43.6254V27.7349H49.7699V40.1722" stroke="#8D8E91" stroke-width="0.7" stroke-miterlimit="10"/>
<path d="M20.9468 27.7346V12.9424H42.3584V27.7346" stroke="#8D8E91" stroke-width="0.7" stroke-miterlimit="10"/>
<path d="M27.3408 12.9424V5.17529H35.9688V12.9424" stroke="#8D8E91" stroke-width="0.7" stroke-miterlimit="10"/>
<path d="M26.9333 15.9604H23.8462V24.8951H26.9333V15.9604Z" stroke="#8D8E91" stroke-width="0.7" stroke-miterlimit="10"/>
<path d="M18.592 30.2378H15.5049V34.1659H18.592V30.2378Z" stroke="#8D8E91" stroke-width="0.7" stroke-miterlimit="10"/>
<path d="M18.592 37.2036H15.5049V41.1317H18.592V37.2036Z" stroke="#8D8E91" stroke-width="0.7" stroke-miterlimit="10"/>
<path d="M33.1964 15.9604H30.1094V24.8951H33.1964V15.9604Z" stroke="#8D8E91" stroke-width="0.7" stroke-miterlimit="10"/>
<path d="M39.4601 15.9604H36.373V24.8951H39.4601V15.9604Z" stroke="#8D8E91" stroke-width="0.7" stroke-miterlimit="10"/>
<path d="M30.3086 7.35205V11.0625" stroke="#8D8E91" stroke-width="0.7" stroke-miterlimit="10"/>
<path d="M33.0015 7.35205V11.0625" stroke="#8D8E91" stroke-width="0.7" stroke-miterlimit="10"/>
<path d="M6.81641 43.625H20.9457" stroke="#8D8E91" stroke-width="0.7" stroke-miterlimit="10"/>
</svg>
