<svg width="62" height="62" viewBox="0 0 62 62" fill="none" xmlns="http://www.w3.org/2000/svg">
<path d="M1 30.9951C1 32.717 1.14844 34.3993 1.42553 36.0421C2.2766 41.0693 4.37457 45.671 7.40277 49.5106C8.00643 50.2825 8.63978 51.0148 9.32261 51.7175C9.81742 52.2321 10.332 52.7368 10.8664 53.2217C11.0643 53.3998 11.2523 53.568 11.4503 53.7462C11.757 54.0134 12.0836 54.2707 12.4003 54.528C12.7862 54.8347 13.1821 55.1316 13.5878 55.4186C18.4963 58.9317 24.5131 61 31.0049 61C31.8164 61 32.6279 60.9703 33.4295 60.901C40.6239 60.3271 47.1059 57.2098 51.9748 52.4399C52.5092 51.9253 53.0238 51.381 53.5087 50.8169C54.3003 49.9263 55.0327 48.9861 55.7056 48.0064C56.1509 47.3632 56.5666 46.7001 56.9723 46.0173C59.5354 41.5938 61 36.4676 61 30.9951C61 14.429 47.571 1 30.9951 1C14.429 1 1 14.429 1 30.9951Z" fill="white" stroke="#8D8E91" stroke-width="0.7" stroke-linecap="round" stroke-linejoin="round"/>
<path d="M39.0586 26.4031C39.0586 25.0671 40.1472 23.9785 41.4831 23.9785C42.8191 23.9785 43.9077 25.0671 43.9077 26.4031C43.9077 27.739 42.8191 28.8276 41.4831 28.8276C40.1472 28.8276 39.0586 27.739 39.0586 26.4031Z" fill="#E1251B"/>
<path d="M47.778 44.6712C43.8096 49.5401 37.7631 52.6375 31.0041 52.6375C19.0496 52.6375 9.36133 42.9493 9.36133 30.9948C9.36133 23.8003 12.8744 17.4174 18.2876 13.4886L31.0041 30.9948V9.35205C42.9487 9.35205 52.6468 19.0403 52.6468 30.9948C52.6468 31.45 52.6369 31.9052 52.6072 32.3605" stroke="#8D8E91" stroke-width="0.7" stroke-linecap="round" stroke-linejoin="round"/>
<path d="M31.2326 39.4658C31.2326 40.5445 31.094 41.5539 30.8169 42.4742C30.5398 43.4044 30.1143 44.1862 29.5502 44.8196C28.9367 45.5024 28.1846 46.017 27.2741 46.3634C26.3736 46.7097 25.3147 46.878 24.1074 46.878C23.6818 46.878 23.2167 46.8483 22.7219 46.7988C22.2271 46.7493 21.9006 46.6998 21.7422 46.6602V44.1268H22.0886C22.2568 44.206 22.5042 44.2951 22.8308 44.3841C23.1574 44.4732 23.5829 44.5227 24.1371 44.5227C24.5824 44.5227 25.0277 44.4633 25.4631 44.3545C25.8986 44.2456 26.2647 44.0675 26.5814 43.8201C26.9179 43.5628 27.2049 43.2362 27.4226 42.8502C27.6403 42.4643 27.7887 41.9893 27.8679 41.445C27.3632 41.732 26.8981 41.9497 26.4725 42.108C26.047 42.2664 25.5126 42.3356 24.8694 42.3356C24.3845 42.3356 23.9194 42.2763 23.4839 42.1575C23.0485 42.0388 22.6428 41.8606 22.2766 41.6033C21.8016 41.2669 21.4156 40.8117 21.1287 40.2575C20.8417 39.7033 20.7031 39.0007 20.7031 38.1496C20.7031 36.774 21.188 35.6459 22.148 34.775C23.1079 33.9042 24.3647 33.4688 25.9283 33.4688C26.7298 33.4688 27.4424 33.5776 28.0559 33.7854C28.6794 33.9932 29.2138 34.3198 29.6591 34.7552C30.1836 35.25 30.5794 35.8834 30.8466 36.6553C31.1138 37.4272 31.2425 38.3574 31.2425 39.4559L31.2326 39.4658ZM27.9174 38.9809C27.9174 38.2783 27.8481 37.6944 27.7096 37.2392C27.571 36.7839 27.3929 36.4376 27.1554 36.1902C26.9871 36.0021 26.7991 35.8735 26.5715 35.7943C26.3439 35.7152 26.1262 35.6756 25.8788 35.6756C25.6512 35.6756 25.4434 35.7152 25.2355 35.7943C25.0277 35.8735 24.8298 36.0021 24.6418 36.2001C24.4636 36.3881 24.3152 36.6256 24.2063 36.9324C24.0975 37.2293 24.0381 37.5954 24.0381 38.0111C24.0381 38.4267 24.0975 38.7533 24.2162 39.0304C24.335 39.3074 24.5032 39.5252 24.7209 39.6835C24.9189 39.8418 25.1564 39.9507 25.4335 40.0101C25.7105 40.0694 26.0074 40.109 26.3241 40.109C26.5814 40.109 26.8684 40.0793 27.1752 40.0101C27.4819 39.9408 27.7195 39.8715 27.8877 39.8022C27.8877 39.7429 27.8877 39.6439 27.8976 39.5252C27.9075 39.4064 27.9075 39.2283 27.9075 38.9908L27.9174 38.9809Z" stroke="#8D8E91" stroke-width="0.7" stroke-linecap="round" stroke-linejoin="round"/>
<path d="M43.4434 40.1882C43.4434 41.2768 43.3444 42.2466 43.1465 43.0976C42.9486 43.9586 42.6418 44.6612 42.2262 45.2055C41.8006 45.7696 41.2563 46.1852 40.5834 46.4722C39.9105 46.7592 39.0891 46.8977 38.1094 46.8977C37.1297 46.8977 36.3281 46.7493 35.6453 46.4623C34.9624 46.1753 34.4181 45.7498 33.9926 45.1857C33.5671 44.6216 33.2603 43.919 33.0624 43.0779C32.8744 42.2367 32.7754 41.2768 32.7754 40.1882C32.7754 39.0996 32.8744 38.1001 33.0723 37.2688C33.2702 36.4376 33.577 35.7449 34.0025 35.1709C34.428 34.6068 34.9822 34.1813 35.6651 33.8943C36.3479 33.6073 37.1594 33.4688 38.1094 33.4688C39.0594 33.4688 39.9204 33.6172 40.5933 33.9042C41.2662 34.1912 41.8105 34.6266 42.2361 35.2105C42.6616 35.7745 42.9585 36.4772 43.1564 37.2985C43.3543 38.1199 43.4434 39.0798 43.4434 40.1684V40.1882ZM40.0985 40.1882C40.0985 38.6345 39.9501 37.5163 39.6433 36.8631C39.3365 36.21 38.8318 35.8735 38.1193 35.8735C37.4068 35.8735 36.9021 36.2001 36.5953 36.8631C36.2885 37.5261 36.1401 38.6444 36.1401 40.208C36.1401 41.7716 36.2984 42.8403 36.6052 43.5133C36.912 44.1862 37.4167 44.5227 38.1193 44.5227C38.8219 44.5227 39.3266 44.1862 39.6334 43.5133C39.9402 42.8403 40.0985 41.732 40.0985 40.1882Z" stroke="#8D8E91" stroke-width="0.7" stroke-linecap="round" stroke-linejoin="round"/>
<path d="M48.621 41.7025L52.055 35.1512M49.5018 37.1404C49.5018 37.8727 49.3336 38.4169 48.9971 38.7633C48.6606 39.1097 48.1658 39.2878 47.5226 39.2878C46.8793 39.2878 46.3548 39.1097 46.0184 38.7534C45.6819 38.3972 45.5137 37.8628 45.5137 37.1503C45.5137 36.4377 45.6819 35.8836 46.0283 35.5372C46.3746 35.1908 46.8694 35.0127 47.5226 35.0127C48.1757 35.0127 48.6705 35.1908 49.007 35.5372C49.3435 35.8836 49.5018 36.4179 49.5018 37.1305V37.1404ZM55.1525 39.6935C55.1525 40.4259 54.9842 40.9701 54.6478 41.3165C54.3113 41.6629 53.8165 41.841 53.1732 41.841C52.53 41.841 52.0055 41.6629 51.669 41.3066C51.3326 40.9504 51.1643 40.416 51.1643 39.7034C51.1643 38.9909 51.3326 38.4367 51.6789 38.0904C52.0253 37.744 52.5201 37.5659 53.1732 37.5659C53.8264 37.5659 54.3212 37.744 54.6577 38.0904C54.9941 38.4367 55.1525 38.9711 55.1525 39.6836V39.6935Z" stroke="#8D8E91" stroke-width="0.7" stroke-linecap="round" stroke-linejoin="round"/>
</svg>
