<svg width="102" height="101" viewBox="0 0 102 101" fill="none" xmlns="http://www.w3.org/2000/svg">
<path d="M101 50.5099C101 51.5496 100.97 52.5893 100.9 53.6092C100.73 56.2827 100.35 58.8869 99.78 61.4218C99.11 64.3726 98.17 67.2343 96.99 69.9573C96.17 71.8585 95.23 73.7003 94.18 75.4727C92.96 77.5422 91.59 79.5127 90.08 81.3743C89.15 82.5229 88.17 83.6418 87.14 84.7014C86.01 85.8698 84.82 86.9887 83.58 88.0482C82.44 89.0186 81.25 89.9395 80.03 90.8109C75.63 93.9201 70.7 96.3461 65.4 97.9205C63.8 98.3958 62.16 98.8018 60.5 99.1087C57.42 99.7028 54.24 100.01 50.99 100.01C50.3 100.01 49.62 99.9999 48.94 99.9702C32.7 99.3266 18.45 91.0089 9.8 78.5819C4.25 70.6109 1 60.9366 1 50.5099C1 23.1705 23.38 1 51 1C78.62 1 101 23.1705 101 50.5099Z" stroke="#878A8E" stroke-width="0.7" stroke-linecap="round" stroke-linejoin="round"/>
<path d="M39.08 32.795C39.08 30.5869 37.27 28.7946 35.04 28.7946C32.81 28.7946 31 30.5869 31 32.795C31 35.0032 32.81 36.7954 35.04 36.7954C37.27 36.7954 39.08 35.0032 39.08 32.795Z" fill="#E1251B"/>
<path d="M56.6588 70.6901C61.8282 70.6901 66.0188 64.2708 66.0188 56.3521C66.0188 48.4334 61.8282 42.014 56.6588 42.014C51.4894 42.014 47.2988 48.4334 47.2988 56.3521C47.2988 64.2708 51.4894 70.6901 56.6588 70.6901Z" stroke="#878A8E" stroke-width="0.7" stroke-linecap="round" stroke-linejoin="round"/>
<path d="M56.0996 68.0763C60.1596 68.0763 63.4396 62.8283 63.4396 56.3524C63.4396 49.8765 60.1496 44.6285 56.0996 44.6285" stroke="#878A8E" stroke-width="0.7" stroke-linecap="round" stroke-linejoin="round"/>
<path d="M56.658 42.0142H61.168C66.338 42.0142 70.528 48.4307 70.528 56.3523C70.528 64.2739 66.338 70.6903 61.168 70.6903H56.498" stroke="#878A8E" stroke-width="0.7" stroke-linecap="round" stroke-linejoin="round"/>
<path d="M65.3287 45.272H62.8887" stroke="#878A8E" stroke-width="0.7" stroke-linecap="round" stroke-linejoin="round"/>
<path d="M68.9479 57.105H66.3379" stroke="#878A8E" stroke-width="0.7" stroke-linecap="round" stroke-linejoin="round"/>
<path d="M65.4185 67.0167H63.2285" stroke="#878A8E" stroke-width="0.7" stroke-linecap="round" stroke-linejoin="round"/>
<path d="M71.1699 82.7407V85.6816" stroke="#878A8E" stroke-width="0.7" stroke-linecap="round" stroke-linejoin="round"/>
<path d="M62.1484 82.7407V85.6816" stroke="#878A8E" stroke-width="0.7" stroke-linecap="round" stroke-linejoin="round"/>
<path d="M53.0488 82.7407V85.6816" stroke="#878A8E" stroke-width="0.7" stroke-linecap="round" stroke-linejoin="round"/>
<path d="M47.9492 82.7409V85.6818" stroke="#878A8E" stroke-width="0.7" stroke-linecap="round" stroke-linejoin="round"/>
<path d="M44.1197 87.0285H74.4297V81.424H44.1197V87.0285Z" stroke="#878A8E" stroke-width="0.7" stroke-linecap="round" stroke-linejoin="round"/>
<path d="M71.1699 75.1456V78.0864" stroke="#878A8E" stroke-width="0.7" stroke-linecap="round" stroke-linejoin="round"/>
<path d="M62.1484 75.1456V78.0864" stroke="#878A8E" stroke-width="0.7" stroke-linecap="round" stroke-linejoin="round"/>
<path d="M53.0488 75.1456V78.0864" stroke="#878A8E" stroke-width="0.7" stroke-linecap="round" stroke-linejoin="round"/>
<path d="M47.9492 75.1458V78.0866" stroke="#878A8E" stroke-width="0.7" stroke-linecap="round" stroke-linejoin="round"/>
<path d="M44.1197 79.4237H74.4297V73.8192H44.1197V79.4237Z" stroke="#878A8E" stroke-width="0.7" stroke-linecap="round" stroke-linejoin="round"/>
<path d="M38.6587 74.1557H23.4688V21.0118H60.1888L65.0687 26.8341V36.9639" stroke="#878A8E" stroke-width="0.7" stroke-linecap="round" stroke-linejoin="round"/>
<path d="M60.1895 21.0118V26.8341H65.0695" stroke="#878A8E" stroke-width="0.7" stroke-linecap="round" stroke-linejoin="round"/>
<path d="M25.4492 18.5562H67.6792V39.0334" stroke="#878A8E" stroke-width="0.7" stroke-linecap="round" stroke-linejoin="round"/>
<path d="M43.8496 30.2108H55.3296" stroke="#878A8E" stroke-width="0.7" stroke-linecap="round" stroke-linejoin="round"/>
<path d="M43.8496 35.5481H49.5896" stroke="#878A8E" stroke-width="0.7" stroke-linecap="round" stroke-linejoin="round"/>
<path d="M79.9756 60.1569L79.9395 34.5306L75.7995 34.5363L75.8356 60.1626L79.9756 60.1569Z" stroke="#878A8E" stroke-width="0.7" stroke-linecap="round" stroke-linejoin="round"/>
<path d="M75.8047 30.3091L75.8066 32.9926L79.9466 32.9897L79.9447 30.3063L75.8047 30.3091Z" stroke="#878A8E" stroke-width="0.7" stroke-linecap="round" stroke-linejoin="round"/>
<path d="M79.9798 61.4312L77.8498 67.0159L75.8398 61.4411L79.9798 61.4312Z" stroke="#878A8E" stroke-width="0.7" stroke-linecap="round" stroke-linejoin="round"/>
<path d="M75.7593 31.7356H75.3893C74.4993 31.7356 73.7793 32.4485 73.7793 33.3298V47.549" stroke="#878A8E" stroke-width="0.7" stroke-linecap="round" stroke-linejoin="round"/>
</svg>
