<svg width="102" height="101" viewBox="0 0 102 101" fill="none" xmlns="http://www.w3.org/2000/svg">
<path d="M101 50.5099C101 51.5496 100.97 52.5893 100.9 53.6092C100.73 56.2827 100.35 58.8869 99.78 61.4218C99.11 64.3726 98.17 67.2343 96.99 69.9573C96.17 71.8585 95.23 73.7003 94.18 75.4727C92.96 77.5422 91.59 79.5127 90.08 81.3743C89.15 82.5229 88.17 83.6418 87.14 84.7014C86.01 85.8698 84.82 86.9887 83.58 88.0482C82.44 89.0186 81.25 89.9395 80.03 90.8109C75.63 93.9201 70.7 96.3461 65.4 97.9205C63.8 98.3958 62.16 98.8018 60.5 99.1087C57.42 99.7028 54.24 100.01 50.99 100.01C50.3 100.01 49.62 99.9999 48.94 99.9702C32.7 99.3266 18.45 91.0089 9.8 78.5819C4.25 70.6109 1 60.9366 1 50.5099C1 23.1705 23.38 1 51 1C78.62 1 101 23.1705 101 50.5099Z" stroke="#878A8E" stroke-width="0.7" stroke-linecap="round" stroke-linejoin="round"/>
<path d="M59.0104 63.3232L60.1204 62.7885C61.0304 62.3429 62.1404 62.6994 62.6204 63.5906L63.2004 64.6699C63.4704 65.1749 63.9704 65.5314 64.5404 65.6304L65.7504 65.8383C66.7504 66.0166 67.4404 66.9473 67.2904 67.9375L67.1204 69.1456C67.0404 69.7199 67.2304 70.2942 67.6304 70.7101L68.4904 71.5914C69.2004 72.3142 69.2004 73.4628 68.4904 74.1857L67.6304 75.067C67.2304 75.4828 67.0404 76.0572 67.1204 76.6315L67.2904 77.8395C67.4304 78.8396 66.7504 79.7704 65.7504 79.9387L64.5404 80.1467C63.9704 80.2457 63.4704 80.6022 63.2004 81.1072L62.6204 82.1865C62.1404 83.0776 61.0404 83.4341 60.1204 82.9885L59.0104 82.4538C58.4904 82.1964 57.8804 82.1964 57.3504 82.4538L56.2404 82.9885C55.3304 83.4341 54.2204 83.0776 53.7404 82.1865L53.1604 81.1072C52.8904 80.6022 52.3904 80.2457 51.8204 80.1467L50.6104 79.9387C49.6104 79.7605 48.9204 78.8297 49.0704 77.8395L49.2404 76.6315C49.3204 76.0572 49.1304 75.4828 48.7304 75.067L47.8704 74.1857C47.1604 73.4628 47.1604 72.3142 47.8704 71.5914L48.7304 70.7101C49.1304 70.2942 49.3204 69.7199 49.2404 69.1456L49.0704 67.9375C48.9304 66.9374 49.6104 66.0067 50.6104 65.8383L51.8204 65.6304C52.3904 65.5314 52.8904 65.1749 53.1604 64.6699L53.7404 63.5906C54.2204 62.6994 55.3204 62.3429 56.2404 62.7885L57.3504 63.3232C57.8704 63.5807 58.4804 63.5807 59.0104 63.3232Z" stroke="#878A8E" stroke-width="0.7" stroke-linecap="round" stroke-linejoin="round"/>
<path d="M52.2812 80.6519V94.0987L58.0712 89.1576" stroke="#878A8E" stroke-width="0.7" stroke-linecap="round" stroke-linejoin="round"/>
<path d="M64.081 80.6519V94.0987L58.291 89.1576" stroke="#878A8E" stroke-width="0.7" stroke-linecap="round" stroke-linejoin="round"/>
<path d="M58.7602 20.1802H24.6602V83.1369H52.0702" stroke="#878A8E" stroke-width="0.7" stroke-linecap="round" stroke-linejoin="round"/>
<path d="M64.2793 83.1371H74.6193V29.2902" stroke="#878A8E" stroke-width="0.7" stroke-linecap="round" stroke-linejoin="round"/>
<path d="M40.9093 33.2704V35.9836H32.5293V27.6956H40.9093" stroke="#878A8E" stroke-width="0.7" stroke-linecap="round" stroke-linejoin="round"/>
<path d="M35.1797 30.9834L37.2497 33.2708L42.4497 29.0228" stroke="#878A8E" stroke-width="0.7" stroke-linecap="round" stroke-linejoin="round"/>
<path d="M46.8809 29.0228H61.4109" stroke="#878A8E" stroke-width="0.7" stroke-linecap="round" stroke-linejoin="round"/>
<path d="M46.8809 34.4587H61.4109" stroke="#878A8E" stroke-width="0.7" stroke-linecap="round" stroke-linejoin="round"/>
<path d="M40.9093 46.9751V49.6882H32.5293V41.4003H40.9093" stroke="#878A8E" stroke-width="0.7" stroke-linecap="round" stroke-linejoin="round"/>
<path d="M35.1797 44.6874L37.2497 46.9747L42.4497 42.7367" stroke="#878A8E" stroke-width="0.7" stroke-linecap="round" stroke-linejoin="round"/>
<path d="M46.8809 42.7367H61.4109" stroke="#878A8E" stroke-width="0.7" stroke-linecap="round" stroke-linejoin="round"/>
<path d="M46.8809 48.163H61.4109" stroke="#878A8E" stroke-width="0.7" stroke-linecap="round" stroke-linejoin="round"/>
<path d="M40.9093 60.6793V63.3924H32.5293V55.1045H40.9093" stroke="#878A8E" stroke-width="0.7" stroke-linecap="round" stroke-linejoin="round"/>
<path d="M35.1797 58.392L37.2497 60.6794L42.4497 56.4413" stroke="#878A8E" stroke-width="0.7" stroke-linecap="round" stroke-linejoin="round"/>
<path d="M46.8809 56.4413H61.4109" stroke="#878A8E" stroke-width="0.7" stroke-linecap="round" stroke-linejoin="round"/>
<path d="M58.2499 79.4038C61.884 79.4038 64.8299 76.4867 64.8299 72.8883C64.8299 69.2899 61.884 66.3728 58.2499 66.3728C54.6159 66.3728 51.6699 69.2899 51.6699 72.8883C51.6699 76.4867 54.6159 79.4038 58.2499 79.4038Z" stroke="#878A8E" stroke-width="0.7" stroke-linecap="round" stroke-linejoin="round"/>
<path d="M90.2988 65.2834C90.2988 63.0753 88.4888 61.283 86.2588 61.283C84.0288 61.283 82.2188 63.0753 82.2188 65.2834C82.2188 67.4916 84.0288 69.2838 86.2588 69.2838C88.4888 69.2838 90.2988 67.4916 90.2988 65.2834Z" fill="#E1251B"/>
<path d="M24.5099 23.9033C23.6599 24.7054 22.8499 25.5569 22.0699 26.458C17.0499 32.221 14.0799 39.0533 13.1199 46.0837C12.5799 49.896 12.6499 53.7776 13.2899 57.5601C14.6299 65.4124 18.4399 72.8983 24.6599 78.7503" stroke="#878A8E" stroke-width="0.7" stroke-linecap="round" stroke-linejoin="round"/>
<path d="M43.6405 20.0616C44.2905 19.9131 44.9405 19.7843 45.6005 19.6655C46.2305 19.5467 46.8805 19.4675 47.5205 19.3982C47.7805 19.3586 48.0305 19.3388 48.2805 19.3189C48.9005 19.2694 49.5205 19.2298 50.1505 19.2199C54.9805 19.0813 59.8505 20.0022 64.3705 22.0123C67.1605 23.25 69.8105 24.9037 72.2405 26.9831C77.5405 31.5281 81.0005 37.39 82.5405 43.658C82.7705 44.6086 82.9605 45.5493 83.1005 46.5098C83.2505 47.5 83.3505 48.4902 83.4005 49.4903L79.9005 49.619L86.6805 57.1643L92.8505 49.1239L89.3605 49.2625C89.3005 48.0545 89.1805 46.8266 89.0005 45.6384C88.8305 44.4997 88.6105 43.3807 88.3405 42.2618C86.5105 34.8452 82.4305 27.8941 76.1405 22.5272C67.9905 15.5562 57.7205 12.5955 47.7805 13.4471C47.4905 13.4768 47.1805 13.5065 46.8705 13.5362C46.1105 13.6154 45.3505 13.7243 44.5905 13.8531C43.5205 14.0313 42.4505 14.259 41.4005 14.5363C41.1005 14.6155 40.7905 14.7046 40.4905 14.7739C40.2105 14.8532 39.9305 14.9423 39.6505 15.0314C38.9405 15.2492 38.2605 15.477 37.5705 15.7443C34.6505 16.8237 31.8505 18.2693 29.2305 20.0715" stroke="#878A8E" stroke-width="0.7" stroke-linecap="round" stroke-linejoin="round"/>
<path d="M24.5398 69.6209C23.4398 68.0762 22.4998 66.4522 21.7098 64.759C20.9398 63.1153 20.3198 61.422 19.8498 59.6793C17.4198 50.8665 18.8398 41.1824 24.2898 33.2509C24.4098 33.0727 24.5298 32.9044 24.6598 32.7261" stroke="#878A8E" stroke-width="0.7" stroke-linecap="round" stroke-linejoin="round"/>
</svg>
