<svg width="102" height="101" viewBox="0 0 102 101" fill="none" xmlns="http://www.w3.org/2000/svg">
<path d="M51 100.02C78.6142 100.02 101 77.8534 101 50.5099C101 23.1663 78.6142 1 51 1C23.3858 1 1 23.1663 1 50.5099C1 77.8534 23.3858 100.02 51 100.02Z" stroke="#878A8E" stroke-width="0.7" stroke-linecap="round" stroke-linejoin="round"/>
<path d="M6.68945 61.5408H21.3895V85.8798" stroke="#878A8E" stroke-width="0.7" stroke-linecap="round" stroke-linejoin="round"/>
<path d="M21.3906 62.8377L27.7406 61.0752C31.5206 60.0256 35.5606 60.6593 38.8306 62.808L47.6806 68.6205C48.7106 69.2938 49.9206 69.6602 51.1506 69.6602H61.8806C63.7806 69.6602 65.3206 71.1851 65.3206 73.0665C65.3206 74.9478 63.7806 76.4727 61.8806 76.4727H51.9806C50.5006 76.4727 49.0206 76.3143 47.5806 75.9875L38.7706 74.0369" stroke="#878A8E" stroke-width="0.7" stroke-linecap="round" stroke-linejoin="round"/>
<path d="M21.3906 84.0975L37.3406 86.9097C43.8106 88.0484 50.4406 88.0979 56.9306 87.0285C65.3906 85.6422 73.2506 81.8002 79.5006 75.9977C81.3906 74.245 81.3406 71.2645 79.4106 69.5713C78.1106 68.4326 76.2706 68.1553 74.6906 68.8683L65.3206 73.0667" stroke="#878A8E" stroke-width="0.7" stroke-linecap="round" stroke-linejoin="round"/>
<path d="M72.8593 47.5291C72.8593 45.3209 71.0493 43.5287 68.8193 43.5287C66.5893 43.5287 64.7793 45.3209 64.7793 47.5291C64.7793 49.7372 66.5893 51.5295 68.8193 51.5295C71.0493 51.5295 72.8593 49.7372 72.8593 47.5291Z" fill="#E1251B"/>
<path d="M71.3091 16.6351V14.724L69.3091 15.2587L60.4791 17.6055L48.9491 20.6652C48.7291 20.7246 48.6291 20.9028 48.6291 21.091C48.6291 21.2791 48.7391 21.4375 48.9491 21.4969L50.1491 21.8336L53.6991 22.8436C54.1691 22.9723 54.6491 23.0417 55.1291 23.0417C55.5791 23.0417 56.0291 22.9822 56.4791 22.8634L60.4891 21.8039L69.3191 19.4571L76.2491 17.6154L78.9591 16.8925V57.9362L56.4591 63.9071C55.5491 64.1447 54.5891 64.1447 53.6791 63.8873L48.9291 62.5406C48.7491 62.4911 48.6491 62.3525 48.6191 62.2039" stroke="#878A8E" stroke-width="0.7" stroke-linecap="round" stroke-linejoin="round"/>
<path d="M48.6191 21.061L48.6391 62.0453" stroke="#878A8E" stroke-width="0.7" stroke-linecap="round" stroke-linejoin="round"/>
<path d="M55.1191 23.0414L55.1291 64.0256" stroke="#878A8E" stroke-width="0.7" stroke-linecap="round" stroke-linejoin="round"/>
<path d="M51.1992 22.101L71.3092 16.6351L76.2492 17.6154" stroke="#878A8E" stroke-width="0.7" stroke-linecap="round" stroke-linejoin="round"/>
<path d="M48.6304 54.9857L38.9004 58.1642V24.9332L43.7004 18.0216L65.4804 12.0111V16.1897" stroke="#878A8E" stroke-width="0.7" stroke-linecap="round" stroke-linejoin="round"/>
<path d="M38.9004 24.834L44.1704 24.2201L43.7004 18.0215" stroke="#878A8E" stroke-width="0.7" stroke-linecap="round" stroke-linejoin="round"/>
<path d="M61.6888 12.9021V9.79285L34.7188 17.3084V54.827L38.8988 53.4209" stroke="#878A8E" stroke-width="0.7" stroke-linecap="round" stroke-linejoin="round"/>
<path d="M59.6504 35.9836L68.4804 33.6467L75.4104 31.8049" stroke="#878A8E" stroke-width="0.7" stroke-linecap="round" stroke-linejoin="round"/>
<path d="M61.7695 31.2404L68.2295 29.5273L73.2895 28.1807" stroke="#878A8E" stroke-width="0.7" stroke-linecap="round" stroke-linejoin="round"/>
</svg>
