<svg width="82" height="82" viewBox="0 0 82 82" fill="none" xmlns="http://www.w3.org/2000/svg">
<path d="M1 40.99C1 43.28 1.19 45.53 1.56 47.72C2.69 54.42 5.5 60.55 9.53 65.68C10.33 66.71 11.18 67.69 12.08 68.63C12.74 69.32 13.43 69.99 14.14 70.64C14.4 70.88 14.66 71.11 14.92 71.34C15.33 71.7 15.76 72.04 16.19 72.38C16.71 72.79 17.23 73.18 17.77 73.57C24.31 78.25 32.33 81.01 41 81.01C42.09 81.01 43.17 80.97 44.24 80.88C53.84 80.11 62.48 75.95 68.97 69.6C69.68 68.91 70.37 68.19 71.02 67.44C72.07 66.25 73.05 65 73.95 63.69C74.54 62.83 75.1 61.94 75.64 61.03C79.05 55.14 81.01 48.3 81.01 41C81.01 18.91 63.1 1 41.01 1C18.92 1 1.01 18.91 1.01 41L1 40.99Z" fill="white" stroke="#8D8E91" stroke-width="0.7" stroke-linecap="round" stroke-linejoin="round"/>
<path d="M25.1406 15.4502C25.1406 13.6702 26.5906 12.2202 28.3706 12.2202C30.1506 12.2202 31.6006 13.6702 31.6006 15.4502C31.6006 17.2302 30.1506 18.6802 28.3706 18.6802C26.5906 18.6802 25.1406 17.2302 25.1406 15.4502Z" fill="#E1251B"/>
<path d="M49.7106 25.5403C49.7106 25.5403 47.0906 18.8503 40.7406 20.1603C34.0206 21.5503 32.2606 27.6003 33.6206 33.0003C36.3006 43.6103 49.7106 48.0303 49.7106 48.0303" stroke="#8D8E91" stroke-width="0.7" stroke-linecap="round" stroke-linejoin="round"/>
<path d="M49.8496 25.5403C49.8496 25.5403 52.4696 18.8503 58.8196 20.1603C65.5396 21.5503 67.2996 27.6003 65.9396 33.0003C63.2596 43.6103 49.8496 48.0303 49.8496 48.0303" stroke="#8D8E91" stroke-width="0.7" stroke-linecap="round" stroke-linejoin="round"/>
<path d="M34.5801 63.6299C37.2034 63.6299 39.3301 61.5032 39.3301 58.8799C39.3301 56.2565 37.2034 54.1299 34.5801 54.1299C31.9567 54.1299 29.8301 56.2565 29.8301 58.8799C29.8301 61.5032 31.9567 63.6299 34.5801 63.6299Z" stroke="#8D8E91" stroke-width="0.7" stroke-linecap="round" stroke-linejoin="round"/>
<path d="M25.1406 73.9298C25.3806 71.2898 26.7106 68.9598 28.6806 67.3898C28.8706 67.2398 29.0606 67.0998 29.2606 66.9598C30.7706 65.9298 32.6006 65.3198 34.5806 65.3198C36.5606 65.3198 38.3306 65.9098 39.8306 66.9098C39.8906 66.9498 39.9606 66.9898 40.0206 67.0398C40.4806 67.3598 40.9006 67.7098 41.2806 68.0998C43.0006 69.8098 44.0606 72.1798 44.0606 74.7998V75.7398" stroke="#8D8E91" stroke-width="0.7" stroke-linecap="round" stroke-linejoin="round"/>
<path d="M50.4492 60.0703C53.0726 60.0703 55.1992 57.9437 55.1992 55.3203C55.1992 52.697 53.0726 50.5703 50.4492 50.5703C47.8259 50.5703 45.6992 52.697 45.6992 55.3203C45.6992 57.9437 47.8259 60.0703 50.4492 60.0703Z" stroke="#8D8E91" stroke-width="0.7" stroke-linecap="round" stroke-linejoin="round"/>
<path d="M41.5195 68.0805C42.1195 66.4005 43.1795 64.9305 44.5495 63.8405C44.7395 63.6905 44.9295 63.5505 45.1295 63.4105C46.6395 62.3805 48.4695 61.7705 50.4495 61.7705C52.4295 61.7705 54.1995 62.3605 55.6995 63.3605C55.7595 63.4005 55.8295 63.4405 55.8895 63.4905C56.3495 63.8105 56.7695 64.1605 57.1495 64.5505" stroke="#8D8E91" stroke-width="0.7" stroke-linecap="round" stroke-linejoin="round"/>
<path d="M64.5703 60.4702C67.1937 60.4702 69.3203 58.3436 69.3203 55.7202C69.3203 53.0969 67.1937 50.9702 64.5703 50.9702C61.947 50.9702 59.8203 53.0969 59.8203 55.7202C59.8203 58.3436 61.947 60.4702 64.5703 60.4702Z" stroke="#8D8E91" stroke-width="0.7" stroke-linecap="round" stroke-linejoin="round"/>
<path d="M55.0898 71.6402C55.0898 68.6402 56.4798 65.9702 58.6698 64.2302C58.8598 64.0802 59.0498 63.9402 59.2498 63.8002C60.7598 62.7702 62.5898 62.1602 64.5698 62.1602C65.8098 62.1602 66.9998 62.4002 68.0898 62.8402" stroke="#8D8E91" stroke-width="0.7" stroke-linecap="round" stroke-linejoin="round"/>
<path d="M22.7601 31.9899C25.0686 31.9899 26.9401 30.1184 26.9401 27.8099C26.9401 25.5013 25.0686 23.6299 22.7601 23.6299C20.4515 23.6299 18.5801 25.5013 18.5801 27.8099C18.5801 30.1184 20.4515 31.9899 22.7601 31.9899Z" stroke="#8D8E91" stroke-width="0.7" stroke-linecap="round" stroke-linejoin="round"/>
<path d="M14.4297 55.72V41.8C14.4297 39.16 15.6497 36.82 17.5697 35.29C17.7397 35.16 17.9097 35.03 18.0797 34.92C19.3997 34.01 21.0197 33.48 22.7497 33.48C24.4797 33.48 26.0397 33.99 27.3597 34.87C27.4197 34.91 27.4697 34.94 27.5297 34.98C27.9297 35.26 28.2997 35.57 28.6397 35.91C30.1497 37.41 31.0797 39.49 31.0797 41.79V42.62L45.2097 35.76" stroke="#8D8E91" stroke-width="0.7" stroke-linecap="round" stroke-linejoin="round"/>
<path d="M23.2889 33.7397L25.0189 43.7597L22.8789 45.6397" stroke="#8D8E91" stroke-width="0.7" stroke-linecap="round" stroke-linejoin="round"/>
<path d="M22.2202 33.7397L20.4902 43.7597L22.6302 45.6397" stroke="#8D8E91" stroke-width="0.7" stroke-linecap="round" stroke-linejoin="round"/>
</svg>
