<svg width="82" height="82" viewBox="0 0 82 82" fill="none" xmlns="http://www.w3.org/2000/svg">
<path d="M1 40.99C1 43.28 1.19 45.53 1.56 47.72C2.69 54.42 5.5 60.55 9.53 65.68C10.33 66.71 11.18 67.69 12.08 68.63C12.74 69.32 13.43 69.99 14.14 70.64C14.4 70.88 14.66 71.11 14.92 71.34C15.33 71.7 15.76 72.04 16.19 72.38C16.71 72.79 17.23 73.18 17.77 73.57C24.31 78.25 32.33 81.01 41 81.01C42.09 81.01 43.17 80.97 44.24 80.88C53.84 80.11 62.48 75.95 68.97 69.6C69.68 68.91 70.37 68.19 71.02 67.44C72.07 66.25 73.05 65 73.95 63.69C74.54 62.83 75.1 61.94 75.64 61.03C79.05 55.14 81.01 48.3 81.01 41C81.01 18.91 63.1 1 41.01 1C18.92 1 1.01 18.91 1.01 41L1 40.99Z" fill="white" stroke="#8D8E91" stroke-width="0.7" stroke-linecap="round" stroke-linejoin="round"/>
<path d="M42.9794 14.0399L45.6194 12.7499C47.7994 11.6799 50.4294 12.5399 51.5694 14.6799L52.9494 17.2699C53.5994 18.4999 54.7794 19.3499 56.1494 19.5899L59.0394 20.0999C61.4294 20.5199 63.0594 22.7599 62.7194 25.1599L62.3094 28.0699C62.1194 29.4399 62.5694 30.8299 63.5294 31.8299L65.5694 33.9399C67.2594 35.6799 67.2594 38.4499 65.5694 40.1899L63.5294 42.2999C62.5694 43.2999 62.1094 44.6799 62.3094 46.0599L62.7194 48.9699C63.0594 51.3699 61.4294 53.6099 59.0394 54.0299L56.1494 54.5399C54.7794 54.7799 53.5994 55.6399 52.9494 56.8599L51.5694 59.4499C50.4294 61.5899 47.7994 62.4499 45.6194 61.3799L42.9794 60.0899C41.7294 59.4799 40.2794 59.4799 39.0294 60.0899L36.3894 61.3799C34.2094 62.4499 31.5794 61.5899 30.4394 59.4499L29.0594 56.8599C28.4094 55.6299 27.2294 54.7799 25.8594 54.5399L22.9694 54.0299C20.5794 53.6099 18.9494 51.3699 19.2894 48.9699L19.6994 46.0599C19.8894 44.6899 19.4394 43.2999 18.4794 42.2999L16.4394 40.1899C14.7494 38.4499 14.7494 35.6799 16.4394 33.9399L18.4794 31.8299C19.4394 30.8299 19.8994 29.4499 19.6994 28.0699L19.2894 25.1599C18.9494 22.7599 20.5794 20.5199 22.9694 20.0999L25.8594 19.5899C27.2294 19.3499 28.4094 18.4899 29.0594 17.2699L30.4394 14.6799C31.5794 12.5399 34.2094 11.6799 36.3894 12.7499L39.0294 14.0399C40.2794 14.6499 41.7294 14.6499 42.9794 14.0399Z" stroke="#8D8E91" stroke-width="0.7" stroke-linecap="round" stroke-linejoin="round"/>
<path d="M23.0508 37.0604C23.0508 38.0904 23.1408 39.1004 23.3008 40.0804C23.8108 43.0904 25.0708 45.8404 26.8808 48.1404C27.2408 48.6004 27.6208 49.0404 28.0308 49.4604C28.3308 49.7704 28.6308 50.0704 28.9508 50.3604C29.0708 50.4704 29.1808 50.5704 29.3008 50.6704C29.4908 50.8304 29.6808 50.9904 29.8708 51.1404C30.1008 51.3204 30.3408 51.5003 30.5808 51.6703C33.5208 53.7703 37.1208 55.0104 41.0008 55.0104C41.4908 55.0104 41.9708 54.9904 42.4508 54.9504C46.7608 54.6104 50.6408 52.7404 53.5508 49.8904C53.8708 49.5804 54.1808 49.2604 54.4708 48.9204C54.9408 48.3904 55.3808 47.8304 55.7908 47.2404C56.0608 46.8504 56.3108 46.4604 56.5508 46.0504C58.0808 43.4004 58.9608 40.3404 58.9608 37.0604C58.9608 27.1504 50.9208 19.1104 41.0108 19.1104C31.1008 19.1104 23.0608 27.1504 23.0608 37.0604H23.0508Z" stroke="#8D8E91" stroke-width="0.7" stroke-linecap="round" stroke-linejoin="round"/>
<path d="M27.7109 37.0603C27.7109 37.8203 27.7709 38.5703 27.9009 39.3003C28.2809 41.5303 29.2109 43.5603 30.5509 45.2703C30.8209 45.6103 31.1009 45.9403 31.4009 46.2503C31.6209 46.4803 31.8509 46.7003 32.0809 46.9203C32.1709 47.0003 32.2509 47.0803 32.3409 47.1503C32.4809 47.2703 32.6209 47.3803 32.7609 47.5003C32.9309 47.6403 33.1109 47.7703 33.2809 47.8903C35.4509 49.4503 38.1209 50.3603 41.0009 50.3603C41.3609 50.3603 41.7209 50.3503 42.0809 50.3203C45.2709 50.0703 48.1409 48.6803 50.3009 46.5703C50.5409 46.3403 50.7609 46.1003 50.9809 45.8503C51.3309 45.4603 51.6509 45.0403 51.9509 44.6003C52.1509 44.3103 52.3309 44.0203 52.5109 43.7203C53.6409 41.7603 54.2909 39.4903 54.2909 37.0703C54.2909 29.7303 48.3409 23.7803 41.0009 23.7803C33.6609 23.7803 27.7109 29.7303 27.7109 37.0703V37.0603Z" stroke="#8D8E91" stroke-width="0.7" stroke-linecap="round" stroke-linejoin="round"/>
<path d="M28.2108 55.7402L23.0508 71.1402L29.8808 67.7302L32.9608 74.4602L37.5208 60.8302" stroke="#8D8E91" stroke-width="0.7" stroke-linecap="round" stroke-linejoin="round"/>
<path d="M53.7905 55.7305L58.9505 71.1405L52.1205 67.7305L49.0405 74.4605L44.4805 60.8305" stroke="#8D8E91" stroke-width="0.7" stroke-linecap="round" stroke-linejoin="round"/>
<path d="M63.5898 58.9702C63.5898 57.1902 65.0398 55.7402 66.8198 55.7402C68.5998 55.7402 70.0498 57.1902 70.0498 58.9702C70.0498 60.7502 68.5998 62.2002 66.8198 62.2002C65.0398 62.2002 63.5898 60.7502 63.5898 58.9702Z" fill="#E1251B"/>
</svg>
