<svg width="81" height="81" viewBox="0 0 81 81" fill="none" xmlns="http://www.w3.org/2000/svg">
<path d="M40.3501 80.3501C62.4415 80.3501 80.3501 62.4415 80.3501 40.3501C80.3501 18.2587 62.4415 0.350098 40.3501 0.350098C18.2587 0.350098 0.350098 18.2587 0.350098 40.3501C0.350098 62.4415 18.2587 80.3501 40.3501 80.3501Z" stroke="#878A8E" stroke-width="0.7" stroke-linecap="round" stroke-linejoin="round"/>
<path d="M13.65 30.9402C15.0915 30.9402 16.26 29.7717 16.26 28.3302C16.26 26.8888 15.0915 25.7202 13.65 25.7202C12.2086 25.7202 11.04 26.8888 11.04 28.3302C11.04 29.7717 12.2086 30.9402 13.65 30.9402Z" stroke="#878A8E" stroke-width="0.7" stroke-linecap="round" stroke-linejoin="round"/>
<path d="M8.43994 45.7904V37.0804C8.43994 35.4304 9.20994 33.9604 10.4099 33.0104C10.5099 32.9304 10.6199 32.8504 10.7299 32.7804C11.5599 32.2104 12.5699 31.8804 13.6499 31.8804C14.7299 31.8804 15.7099 32.2004 16.5299 32.7504C16.5699 32.7704 16.5999 32.8004 16.6299 32.8204C16.8799 32.9904 17.1099 33.1904 17.3299 33.4004C18.2699 34.3404 18.8599 35.6404 18.8599 37.0804V45.7904" stroke="#878A8E" stroke-width="0.7" stroke-linecap="round" stroke-linejoin="round"/>
<path d="M30.9803 46.2703H28.8203H22.0303V18.0703H62.1303V36.3603" stroke="#878A8E" stroke-width="0.7" stroke-linecap="round" stroke-linejoin="round"/>
<path d="M63.1602 15.5703H20.9902V18.0803H63.1602V15.5703Z" stroke="#878A8E" stroke-width="0.7" stroke-linecap="round" stroke-linejoin="round"/>
<path d="M44.0101 13.5303H40.1401V15.5703H44.0101V13.5303Z" stroke="#878A8E" stroke-width="0.7" stroke-linecap="round" stroke-linejoin="round"/>
<path d="M34.6903 27.3802C35.9503 26.1202 35.9503 24.0702 34.6903 22.8102C33.4303 21.5502 31.3803 21.5502 30.1203 22.8102C28.8603 24.0702 28.8603 26.1202 30.1203 27.3802C31.3803 28.6402 33.4303 28.6402 34.6903 27.3802Z" fill="#E41910"/>
<path d="M13.9402 32.1099L15.0202 38.3799L13.6802 39.5599" stroke="#878A8E" stroke-width="0.7" stroke-linecap="round" stroke-linejoin="round"/>
<path d="M13.3 32.1099L12.21 38.3799L13.55 39.5599" stroke="#878A8E" stroke-width="0.7" stroke-linecap="round" stroke-linejoin="round"/>
<path d="M28.8201 46.27L25.1201 57.76" stroke="#878A8E" stroke-width="0.7" stroke-linecap="round" stroke-linejoin="round"/>
<path d="M10.25 43.04V56.63H12.7V46.82" stroke="#878A8E" stroke-width="0.7" stroke-linecap="round" stroke-linejoin="round"/>
<path d="M17.47 43.04V56.63H15.02V46.82" stroke="#878A8E" stroke-width="0.7" stroke-linecap="round" stroke-linejoin="round"/>
<path d="M37.98 24.75H56.54" stroke="#878A8E" stroke-width="0.7" stroke-linecap="round" stroke-linejoin="round"/>
<path d="M31.8203 31.8701H50.3803" stroke="#878A8E" stroke-width="0.7" stroke-linecap="round" stroke-linejoin="round"/>
<path d="M31.8203 36.04H50.3803" stroke="#878A8E" stroke-width="0.7" stroke-linecap="round" stroke-linejoin="round"/>
<path d="M41.8302 67.7901C46.9996 67.7901 51.1902 61.3072 51.1902 53.3101C51.1902 45.313 46.9996 38.8301 41.8302 38.8301C36.6608 38.8301 32.4702 45.313 32.4702 53.3101C32.4702 61.3072 36.6608 67.7901 41.8302 67.7901Z" stroke="#8D8E91" stroke-width="0.7" stroke-linecap="round" stroke-linejoin="round"/>
<path d="M41.27 65.1502C45.33 65.1502 48.61 59.8502 48.61 53.3102C48.61 46.7702 45.32 41.4702 41.27 41.4702" stroke="#8D8E91" stroke-width="0.7" stroke-linecap="round" stroke-linejoin="round"/>
<path d="M41.8304 38.8301H46.3404C51.5104 38.8301 55.7004 45.3101 55.7004 53.3101C55.7004 61.3101 51.5104 67.7901 46.3404 67.7901H41.6704" stroke="#8D8E91" stroke-width="0.7" stroke-linecap="round" stroke-linejoin="round"/>
<path d="M50.5001 42.1201H48.0601" stroke="#8D8E91" stroke-width="0.7" stroke-linecap="round" stroke-linejoin="round"/>
<path d="M54.1203 54.0703H51.5103" stroke="#8D8E91" stroke-width="0.7" stroke-linecap="round" stroke-linejoin="round"/>
<path d="M50.5904 64.0801H48.4004" stroke="#8D8E91" stroke-width="0.7" stroke-linecap="round" stroke-linejoin="round"/>
<path d="M49.7104 67.7998C54.8804 67.7998 59.0704 61.3198 59.0704 53.3198C59.0704 45.3198 54.8804 38.8398 49.7104 38.8398" stroke="#8D8E91" stroke-width="0.7" stroke-linecap="round" stroke-linejoin="round"/>
<path d="M49.7103 38.8301H54.2203C59.3903 38.8301 63.5803 45.3101 63.5803 53.3101C63.5803 61.3101 59.3903 67.7901 54.2203 67.7901H49.5503" stroke="#8D8E91" stroke-width="0.7" stroke-linecap="round" stroke-linejoin="round"/>
<path d="M58.3804 42.1201H55.9404" stroke="#8D8E91" stroke-width="0.7" stroke-linecap="round" stroke-linejoin="round"/>
<path d="M62.0001 54.0703H59.3901" stroke="#8D8E91" stroke-width="0.7" stroke-linecap="round" stroke-linejoin="round"/>
<path d="M58.4703 64.0801H56.2803" stroke="#8D8E91" stroke-width="0.7" stroke-linecap="round" stroke-linejoin="round"/>
<path d="M57.54 67.7998C62.71 67.7998 66.9 61.3198 66.9 53.3198C66.9 45.3198 62.71 38.8398 57.54 38.8398" stroke="#8D8E91" stroke-width="0.7" stroke-linecap="round" stroke-linejoin="round"/>
<path d="M57.5399 38.8301H62.0499C67.2199 38.8301 71.4099 45.3101 71.4099 53.3101C71.4099 61.3101 67.2199 67.7901 62.0499 67.7901H57.3799" stroke="#8D8E91" stroke-width="0.7" stroke-linecap="round" stroke-linejoin="round"/>
<path d="M66.21 42.1201H63.77" stroke="#8D8E91" stroke-width="0.7" stroke-linecap="round" stroke-linejoin="round"/>
<path d="M69.8197 54.0703H67.2197" stroke="#8D8E91" stroke-width="0.7" stroke-linecap="round" stroke-linejoin="round"/>
<path d="M66.2901 64.0801H64.1001" stroke="#8D8E91" stroke-width="0.7" stroke-linecap="round" stroke-linejoin="round"/>
</svg>
