<svg width="82" height="82" viewBox="0 0 82 82" fill="none" xmlns="http://www.w3.org/2000/svg">
<path d="M1 40.99C1 43.28 1.19 45.53 1.56 47.72C2.69 54.42 5.5 60.55 9.53 65.68C10.33 66.71 11.18 67.69 12.08 68.63C12.74 69.32 13.43 69.99 14.14 70.64C14.4 70.88 14.66 71.11 14.92 71.34C15.33 71.7 15.76 72.04 16.19 72.38C16.71 72.79 17.23 73.18 17.77 73.57C24.31 78.25 32.33 81.01 41 81.01C42.09 81.01 43.17 80.97 44.24 80.88C53.84 80.11 62.48 75.95 68.97 69.6C69.68 68.91 70.37 68.19 71.02 67.44C72.07 66.25 73.05 65 73.95 63.69C74.54 62.83 75.1 61.94 75.64 61.03C79.05 55.14 81.01 48.3 81.01 41C81.01 18.91 63.1 1 41.01 1C18.92 1 1.01 18.91 1.01 41L1 40.99Z" fill="white" stroke="#8D8E91" stroke-width="0.7" stroke-linecap="round" stroke-linejoin="round"/>
<path d="M55.1406 43.6499C55.1406 41.8699 56.5906 40.4199 58.3706 40.4199C60.1506 40.4199 61.6006 41.8699 61.6006 43.6499C61.6006 45.4299 60.1506 46.8799 58.3706 46.8799C56.5906 46.8799 55.1406 45.4299 55.1406 43.6499Z" fill="#E1251B"/>
<path d="M37.9902 54.5302L43.4302 50.8202L49.6402 59.9302L72.3002 44.4702" stroke="#8D8E91" stroke-width="0.7" stroke-linecap="round" stroke-linejoin="round"/>
<path d="M23.2305 64.6003L27.4005 61.7603" stroke="#8D8E91" stroke-width="0.7" stroke-linecap="round" stroke-linejoin="round"/>
<path d="M68.8105 43.6504L72.6005 44.3404L71.9105 48.1404" stroke="#8D8E91" stroke-width="0.7" stroke-linecap="round" stroke-linejoin="round"/>
<path d="M62.2191 30.4301L41.4091 17.8901L11.3691 26.5601L32.0391 39.4101L62.2191 30.4301Z" stroke="#8D8E91" stroke-width="0.7" stroke-linecap="round" stroke-linejoin="round"/>
<path d="M52.3701 33.7899L52.6101 37.3399C52.6101 37.3399 46.9001 43.0899 36.1001 43.0899C24.2701 43.0899 20.8301 35.7399 20.8301 35.7399L21.0901 32.6699" stroke="#8D8E91" stroke-width="0.7" stroke-linecap="round" stroke-linejoin="round"/>
<path d="M31.9395 39.8701V51.3001" stroke="#8D8E91" stroke-width="0.7" stroke-linecap="round" stroke-linejoin="round"/>
<path d="M31.9395 51.5601C34.0095 51.5601 35.6895 53.2401 35.6895 55.3101V59.2501H28.1895V55.3101C28.1895 53.2401 29.8695 51.5601 31.9395 51.5601Z" stroke="#8D8E91" stroke-width="0.7" stroke-linecap="round" stroke-linejoin="round"/>
</svg>
