<svg width="62" height="62" viewBox="0 0 62 62" fill="none" xmlns="http://www.w3.org/2000/svg">
<path d="M61 30.9951C61 31.6284 60.9802 32.2519 60.9406 32.8753C60.8417 34.4884 60.6141 36.0717 60.2677 37.6155C59.8619 39.4067 59.2979 41.1385 58.5952 42.7912C58.1004 43.9391 57.5364 45.0574 56.9129 46.1262C56.1806 47.383 55.3592 48.5705 54.4587 49.7086C53.9045 50.4112 53.3107 51.0841 52.6972 51.7274C52.0242 52.4399 51.3117 53.1128 50.5596 53.7561C49.8768 54.3399 49.1643 54.904 48.432 55.4285C45.7897 57.3088 42.8407 58.7833 39.6541 59.7333C38.6942 60.0203 37.7145 60.2677 36.715 60.4557C34.8644 60.812 32.9644 61 31.0049 61C30.5893 61 30.1836 61 29.7778 60.9703C20.0302 60.5844 11.4899 55.5374 6.29441 48.0064C2.94953 43.1771 1 37.3187 1 30.9951C1 14.429 14.429 1 30.9951 1C47.5611 1 60.9901 14.429 60.9901 30.9951H61Z" fill="white" stroke="#8D8E91" stroke-width="0.7" stroke-linecap="round" stroke-linejoin="round"/>
<path d="M47.5913 46.7397C47.5913 45.4038 46.5027 44.3152 45.1667 44.3152C43.8308 44.3152 42.7422 45.4038 42.7422 46.7397C42.7422 48.0757 43.8308 49.1643 45.1667 49.1643C46.5027 49.1643 47.5913 48.0757 47.5913 46.7397Z" fill="#E1251B"/>
<path d="M39.7152 17.5561L40.4871 17.18C41.1204 16.8732 41.8923 17.1206 42.2189 17.7441L42.6246 18.4962C42.8127 18.8524 43.159 19.0998 43.5549 19.1691L44.396 19.3176C45.0888 19.4363 45.5638 20.0895 45.4648 20.7921L45.3461 21.6431C45.2867 22.039 45.4252 22.4447 45.7023 22.7416L46.2961 23.3552C46.7909 23.8599 46.7909 24.6713 46.2961 25.176L45.7023 25.7896C45.4252 26.0766 45.2867 26.4823 45.3461 26.8881L45.4648 27.7391C45.5638 28.4418 45.0888 29.0949 44.396 29.2137L43.5549 29.3621C43.159 29.4314 42.8127 29.6788 42.6246 30.035L42.2189 30.7871C41.8824 31.4106 41.1204 31.658 40.4871 31.3512L39.7152 30.9752C39.349 30.797 38.9235 30.797 38.5672 30.9752L37.7953 31.3512C37.162 31.658 36.3901 31.4106 36.0635 30.7871L35.6578 30.035C35.4698 29.6788 35.1234 29.4314 34.7276 29.3621L33.8864 29.2137C33.1937 29.0949 32.7186 28.4418 32.8176 27.7391L32.9364 26.8881C32.9957 26.4922 32.8572 26.0865 32.5801 25.7896L31.9863 25.176C31.4915 24.6713 31.4915 23.8599 31.9863 23.3552L32.5801 22.7416C32.8572 22.4546 32.9957 22.0489 32.9364 21.6431L32.8176 20.7921C32.7186 20.0895 33.1937 19.4363 33.8864 19.3176L34.7276 19.1691C35.1234 19.0998 35.4698 18.8524 35.6578 18.4962L36.0635 17.7441C36.4 17.1206 37.162 16.8732 37.7953 17.18L38.5672 17.5561C38.9334 17.7342 39.3589 17.7342 39.7152 17.5561Z" stroke="#8D8E91" stroke-width="0.7" stroke-linecap="round" stroke-linejoin="round"/>
<path d="M35.1328 24.2754C35.1328 24.503 35.1526 24.7306 35.1922 24.9483C35.301 25.6212 35.588 26.2348 35.9938 26.7494C36.0729 26.8484 36.162 26.9473 36.2511 27.0463C36.3203 27.1156 36.3896 27.1848 36.4589 27.2442C36.4886 27.264 36.5084 27.2937 36.5381 27.3135C36.5776 27.3531 36.6172 27.3827 36.6667 27.4223C36.7162 27.4619 36.7756 27.5015 36.825 27.5411C37.4782 28.0062 38.2897 28.2833 39.1506 28.2833C39.2595 28.2833 39.3683 28.2833 39.4772 28.2734C40.4371 28.1942 41.308 27.7786 41.9611 27.1452C42.0304 27.076 42.0997 27.0067 42.1689 26.9275C42.2778 26.8088 42.3768 26.6801 42.4658 26.5515C42.5252 26.4624 42.5846 26.3733 42.634 26.2843C42.9804 25.6905 43.1684 25.0077 43.1684 24.2754C43.1684 22.0586 41.3772 20.2675 39.1605 20.2675C36.9438 20.2675 35.1526 22.0586 35.1526 24.2754H35.1328Z" stroke="#8D8E91" stroke-width="0.7" stroke-linecap="round" stroke-linejoin="round"/>
<path d="M35.4105 29.7283L33.9062 34.2211L35.8954 33.2216L36.7959 35.181L38.1319 31.2127" stroke="#8D8E91" stroke-width="0.7" stroke-linecap="round" stroke-linejoin="round"/>
<path d="M42.8717 29.7283L44.3759 34.2211L42.3868 33.2216L41.4862 35.181L40.1602 31.2127" stroke="#8D8E91" stroke-width="0.7" stroke-linecap="round" stroke-linejoin="round"/>
<path d="M30.124 24.3348H27.2344V51.7668H49.7579V24.3348H47.749" stroke="#8D8E91" stroke-width="0.7" stroke-linecap="round" stroke-linejoin="round"/>
<path d="M26.3338 19.3374C29.8426 19.3374 32.687 16.493 32.687 12.9841C32.687 9.47532 29.8426 6.63086 26.3338 6.63086C22.8249 6.63086 19.9805 9.47532 19.9805 12.9841C19.9805 16.493 22.8249 19.3374 26.3338 19.3374Z" stroke="#8D8E91" stroke-width="0.7" stroke-linecap="round" stroke-linejoin="round"/>
<path d="M19.6648 31.3216V41.6927C19.6648 43.1375 18.4872 44.3152 17.0424 44.3152C15.5976 44.3152 14.4199 43.1375 14.4199 41.6927V31.0148C14.4199 28.1153 15.746 25.5324 17.8242 23.8402C17.8539 23.8105 17.8935 23.7907 17.9231 23.761C18.1112 23.6125 18.2992 23.474 18.4872 23.3454C18.6159 23.2563 18.7544 23.1672 18.893 23.0782C20.1893 22.2865 21.7034 21.8115 23.3264 21.7422H30.4813" stroke="#8D8E91" stroke-width="0.7" stroke-linecap="round" stroke-linejoin="round"/>
<path d="M18.5977 43.8005V53.8352" stroke="#8D8E91" stroke-width="0.7" stroke-linecap="round" stroke-linejoin="round"/>
</svg>
