<svg width="62" height="62" viewBox="0 0 62 62" fill="none" xmlns="http://www.w3.org/2000/svg">
<path d="M61 30.9951C61 31.6284 60.9802 32.2519 60.9406 32.8753C60.8417 34.4884 60.6141 36.0717 60.2677 37.6155C59.8619 39.4067 59.2979 41.1385 58.5952 42.7912C58.1004 43.9391 57.5364 45.0574 56.9129 46.1262C56.1806 47.383 55.3592 48.5705 54.4587 49.7086C53.9045 50.4112 53.3107 51.0841 52.6972 51.7274C52.0242 52.4399 51.3117 53.1128 50.5596 53.7561C49.8768 54.3399 49.1643 54.904 48.432 55.4285C45.7897 57.3088 42.8407 58.7833 39.6541 59.7333C38.6942 60.0203 37.7145 60.2677 36.715 60.4557C34.8644 60.812 32.9644 61 31.0049 61C30.5893 61 30.1836 61 29.7778 60.9703C20.0302 60.5844 11.4899 55.5374 6.29441 48.0064C2.94953 43.1771 1 37.3187 1 30.9951C1 14.429 14.429 1 30.9951 1C47.5611 1 60.9901 14.429 60.9901 30.9951H61Z" fill="white" stroke="#8D8E91" stroke-width="0.7" stroke-linecap="round" stroke-linejoin="round"/>
<path d="M34.0522 43.9695C34.0522 42.6335 32.9636 41.5449 31.6277 41.5449C30.2917 41.5449 29.2031 42.6335 29.2031 43.9695C29.2031 45.3054 30.2917 46.394 31.6277 46.394C32.9636 46.394 34.0522 45.3054 34.0522 43.9695Z" fill="#E1251B"/>
<path d="M32.3806 35.2411L33.3801 34.7562C34.2015 34.3504 35.201 34.677 35.6364 35.4885L36.1609 36.4682C36.4083 36.9333 36.8536 37.2599 37.3682 37.349L38.4667 37.537C39.3771 37.6953 39.9907 38.5464 39.8621 39.4568L39.7037 40.5553C39.6344 41.0798 39.8027 41.6043 40.1688 41.9803L40.9407 42.7819C41.584 43.4449 41.584 44.4939 40.9407 45.157L40.1688 45.9586C39.8027 46.3346 39.6344 46.8591 39.7037 47.3836L39.8621 48.4821C39.9907 49.3925 39.3771 50.2436 38.4667 50.4019L37.3682 50.5899C36.8536 50.679 36.4083 51.0056 36.1609 51.4707L35.6364 52.4504C35.201 53.2619 34.2114 53.5884 33.3801 53.1827L32.3806 52.6978C31.9056 52.4702 31.3514 52.4702 30.8863 52.6978L29.8868 53.1827C29.0654 53.5884 28.0659 53.2619 27.6305 52.4504L27.106 51.4707C26.8586 51.0056 26.4133 50.679 25.8987 50.5899L24.8002 50.4019C23.8898 50.2436 23.2762 49.3925 23.4049 48.4821L23.5632 47.3836C23.6325 46.8591 23.4642 46.3346 23.0981 45.9586L22.3262 45.157C21.6829 44.4939 21.6829 43.4449 22.3262 42.7819L23.0981 41.9803C23.4642 41.6043 23.6325 41.0798 23.5632 40.5553L23.4049 39.4568C23.2762 38.5464 23.8898 37.6953 24.8002 37.537L25.8987 37.349C26.4133 37.2599 26.8586 36.9333 27.106 36.4682L27.6305 35.4885C28.0659 34.677 29.0555 34.3504 29.8868 34.7562L30.8863 35.2411C31.3613 35.4687 31.9155 35.4687 32.3806 35.2411Z" stroke="#8D8E91" stroke-width="0.7" stroke-linecap="round" stroke-linejoin="round"/>
<path d="M26.4219 43.9697C26.4219 44.2666 26.4516 44.5635 26.4911 44.8505C26.6396 45.7213 27.0057 46.5229 27.5302 47.186C27.6391 47.3146 27.748 47.4433 27.8667 47.5719C27.9558 47.661 28.0448 47.75 28.1339 47.8292C28.1636 47.8589 28.2032 47.8886 28.2329 47.9183C28.2823 47.9678 28.3417 48.0073 28.4011 48.0568C28.4704 48.1063 28.5396 48.1657 28.6089 48.2152C29.46 48.8287 30.509 49.185 31.6371 49.185C31.7757 49.185 31.9241 49.185 32.0626 49.1652C33.3096 49.0662 34.4377 48.5219 35.2789 47.7006C35.3679 47.6115 35.457 47.5125 35.5461 47.4235C35.6846 47.2651 35.8133 47.1068 35.932 46.9386C36.0112 46.8297 36.0805 46.711 36.1497 46.5922C36.5951 45.8203 36.8524 44.9297 36.8524 43.9796C36.8524 41.0999 34.5169 38.7743 31.647 38.7743C28.7771 38.7743 26.4417 41.1098 26.4417 43.9796L26.4219 43.9697Z" stroke="#8D8E91" stroke-width="0.7" stroke-linecap="round" stroke-linejoin="round"/>
<path d="M26.7797 51.0447L24.8203 56.8834L27.4131 55.587L28.5808 58.1402L30.3126 52.9744" stroke="#8D8E91" stroke-width="0.7" stroke-linecap="round" stroke-linejoin="round"/>
<path d="M36.4782 51.0447L38.4277 56.8834L35.8449 55.587L34.6771 58.1402L32.9453 52.9744" stroke="#8D8E91" stroke-width="0.7" stroke-linecap="round" stroke-linejoin="round"/>
<path d="M42.5735 46.3547H46.334V10.709H15.666V46.3547H19.6838" stroke="#8D8E91" stroke-width="0.7" stroke-linecap="round" stroke-linejoin="round"/>
<path d="M25.8086 14.6182H18.9902V21.4366H25.8086V14.6182Z" stroke="#8D8E91" stroke-width="0.7" stroke-linecap="round" stroke-linejoin="round"/>
<path d="M20.7031 17.1303L22.3954 19.5647L24.2954 16.21" stroke="#8D8E91" stroke-width="0.7" stroke-linecap="round" stroke-linejoin="round"/>
<path d="M25.8086 25.1279H18.9902V31.9463H25.8086V25.1279Z" stroke="#8D8E91" stroke-width="0.7" stroke-linecap="round" stroke-linejoin="round"/>
<path d="M20.7031 27.6401L22.3954 30.0745L24.2954 26.7197" stroke="#8D8E91" stroke-width="0.7" stroke-linecap="round" stroke-linejoin="round"/>
<path d="M29.1934 16.21H42.4541" stroke="#8D8E91" stroke-width="0.7" stroke-linecap="round" stroke-linejoin="round"/>
<path d="M29.1934 19.5654H42.4541" stroke="#8D8E91" stroke-width="0.7" stroke-linecap="round" stroke-linejoin="round"/>
<path d="M29.1934 26.7197H42.4541" stroke="#8D8E91" stroke-width="0.7" stroke-linecap="round" stroke-linejoin="round"/>
<path d="M29.1934 30.0752H38.4264" stroke="#8D8E91" stroke-width="0.7" stroke-linecap="round" stroke-linejoin="round"/>
</svg>
