<svg width="62" height="62" viewBox="0 0 62 62" fill="none" xmlns="http://www.w3.org/2000/svg">
<path d="M1 30.9951C1 32.717 1.14844 34.3993 1.42553 36.0421C2.2766 41.0693 4.37457 45.671 7.40277 49.5106C8.00643 50.2825 8.63978 51.0148 9.32261 51.7175C9.81742 52.2321 10.332 52.7368 10.8664 53.2217C11.0643 53.3998 11.2523 53.568 11.4503 53.7462C11.757 54.0134 12.0836 54.2707 12.4003 54.528C12.7862 54.8347 13.1821 55.1316 13.5878 55.4186C18.4963 58.9317 24.5131 61 31.0049 61C31.8164 61 32.6279 60.9703 33.4295 60.901C40.6239 60.3271 47.1059 57.2098 51.9748 52.4399C52.5092 51.9253 53.0238 51.381 53.5087 50.8169C54.3003 49.9263 55.0327 48.9861 55.7056 48.0064C56.1509 47.3632 56.5666 46.7001 56.9723 46.0173C59.5354 41.5938 61 36.4676 61 30.9951C61 14.429 47.571 1 30.9951 1C14.4191 1 1 14.429 1 30.9951Z" fill="white" stroke="#8D8E91" stroke-width="0.7" stroke-linecap="round" stroke-linejoin="round"/>
<path d="M37.7051 10.5593C37.7051 9.22334 38.7936 8.13477 40.1296 8.13477C41.4656 8.13477 42.5542 9.22334 42.5542 10.5593C42.5542 11.8953 41.4656 12.9839 40.1296 12.9839C38.7936 12.9839 37.7051 11.8953 37.7051 10.5593Z" fill="#E1251B"/>
<path d="M16.0311 26.2555C18.1517 26.2555 19.8708 24.5365 19.8708 22.4159C19.8708 20.2953 18.1517 18.5762 16.0311 18.5762C13.9105 18.5762 12.1914 20.2953 12.1914 22.4159C12.1914 24.5365 13.9105 26.2555 16.0311 26.2555Z" stroke="#8D8E91" stroke-width="0.7" stroke-linecap="round" stroke-linejoin="round"/>
<path d="M8.37305 44.7521V35.2914C8.37305 32.8669 9.5012 30.7095 11.2627 29.3043C11.4111 29.1855 11.5695 29.0668 11.7278 28.9579C12.945 28.1266 14.4295 27.6318 16.0227 27.6318C17.616 27.6318 19.0509 28.1068 20.2681 28.9183C20.3176 28.9579 20.377 28.9876 20.4166 29.0272C20.7827 29.2845 21.1291 29.5715 21.4359 29.8881C22.8213 31.2736 23.6823 33.1835 23.6823 35.3013V36.0633L33.143 33.7872" stroke="#8D8E91" stroke-width="0.7" stroke-linecap="round" stroke-linejoin="round"/>
<path d="M16.5264 27.8682L18.1197 37.0913L16.1504 38.8231" stroke="#8D8E91" stroke-width="0.7" stroke-linecap="round" stroke-linejoin="round"/>
<path d="M15.5386 27.8682L13.9453 37.0913L15.9146 38.8231" stroke="#8D8E91" stroke-width="0.7" stroke-linecap="round" stroke-linejoin="round"/>
<path d="M42.6928 36.6956C42.9204 36.9331 43.0886 37.2003 43.2074 37.4972C43.3261 37.7941 43.3657 38.18 43.3163 38.6451C43.2668 39.1795 43.1084 39.6644 42.861 40.0998C42.6136 40.5353 42.2475 40.9014 41.7824 41.1884C41.3271 41.4655 40.8026 41.6634 40.2188 41.7723C39.6349 41.8811 38.9224 41.9009 38.1109 41.8218C37.1807 41.7327 36.3791 41.5744 35.726 41.3665C35.0728 41.1587 34.5384 40.941 34.1426 40.7134L34.3801 38.2394L34.677 38.2691C35.0827 38.5758 35.5874 38.8529 36.1713 39.1003C36.7551 39.3477 37.2994 39.4962 37.7942 39.5457C38.0911 39.5753 38.4078 39.5852 38.7542 39.5655C39.1005 39.5457 39.4073 39.4764 39.6547 39.3378C39.8526 39.229 40.0209 39.0904 40.1495 38.9222C40.2782 38.754 40.3573 38.4967 40.387 38.1602C40.4167 37.8237 40.3672 37.5664 40.2386 37.3784C40.1099 37.1904 39.9219 37.042 39.6745 36.9331C39.437 36.8242 39.1401 36.755 38.7937 36.7154C38.4474 36.6758 38.1208 36.6362 37.8239 36.6065L37.2005 36.5471L37.3984 34.5283L38.0416 34.5877C38.4375 34.6273 38.7838 34.6471 39.0906 34.6471C39.3974 34.6471 39.6547 34.6174 39.8823 34.5481C40.1099 34.469 40.2979 34.3601 40.4167 34.2117C40.5355 34.0632 40.6245 33.8356 40.6542 33.5288C40.674 33.3012 40.6344 33.1132 40.5355 32.9648C40.4365 32.8163 40.2979 32.6877 40.1297 32.5887C39.9417 32.4799 39.7141 32.3908 39.4469 32.3413C39.1797 32.2918 38.9521 32.2522 38.7641 32.2325C38.289 32.183 37.7645 32.2226 37.1906 32.3314C36.6166 32.4403 36.0624 32.6283 35.5082 32.8856L35.2311 32.8559L35.4687 30.4116C35.9041 30.2829 36.4781 30.184 37.2005 30.0949C37.9229 30.0058 38.6552 30.0058 39.3875 30.0751C40.1198 30.1444 40.7136 30.2631 41.2381 30.4413C41.7626 30.6194 42.1881 30.8272 42.5147 31.0647C42.9006 31.3517 43.1876 31.6882 43.3558 32.0543C43.5241 32.4205 43.5835 32.8559 43.534 33.3309C43.4746 33.9544 43.2272 34.4987 42.7918 34.9539C42.3563 35.4091 41.812 35.6763 41.1589 35.7456V35.8544C41.4063 35.9138 41.6735 36.0128 41.9506 36.1513C42.2277 36.2898 42.4751 36.468 42.6928 36.6857V36.6956Z" fill="white" stroke="#8D8E91" stroke-width="0.7" stroke-linecap="round" stroke-linejoin="round"/>
<path d="M29.0762 25.751L49.1059 27.5422V20.3675L29.0762 18.5763V25.751Z" stroke="#8D8E91" stroke-width="0.7" stroke-linecap="round" stroke-linejoin="round"/>
<path d="M52.2825 25.454V18.2694L32.6289 16.5178L29.0762 18.5762" stroke="#8D8E91" stroke-width="0.7" stroke-linecap="round" stroke-linejoin="round"/>
<path d="M26.2949 44.801L43.2469 47.5323C46.9876 47.5323 49.0955 44.5041 49.0955 40.7633V27.5422L29.046 25.751V38.0122C29.046 39.8133 28.5314 41.5748 27.5616 43.0889L26.2949 44.801Z" stroke="#8D8E91" stroke-width="0.7" stroke-linecap="round" stroke-linejoin="round"/>
<path d="M52.2821 18.2687L49.1055 20.3666" stroke="#8D8E91" stroke-width="0.7" stroke-linecap="round" stroke-linejoin="round"/>
<path d="M52.2821 25.4542L49.1055 27.5423" stroke="#8D8E91" stroke-width="0.7" stroke-linecap="round" stroke-linejoin="round"/>
<path d="M51.3203 42.8321C51.9537 41.7138 52.2802 40.3482 52.2802 38.8736V25.6525" stroke="#8D8E91" stroke-width="0.7" stroke-linecap="round" stroke-linejoin="round"/>
<path d="M33.152 23.9301C33.7914 23.9301 34.3098 23.4117 34.3098 22.7722C34.3098 22.1328 33.7914 21.6144 33.152 21.6144C32.5125 21.6144 31.9941 22.1328 31.9941 22.7722C31.9941 23.4117 32.5125 23.9301 33.152 23.9301Z" stroke="#8D8E91" stroke-width="0.7" stroke-linecap="round" stroke-linejoin="round"/>
<path d="M44.7106 25.0775C45.35 25.0775 45.8684 24.5591 45.8684 23.9197C45.8684 23.2802 45.35 22.7618 44.7106 22.7618C44.0711 22.7618 43.5527 23.2802 43.5527 23.9197C43.5527 24.5591 44.0711 25.0775 44.7106 25.0775Z" stroke="#8D8E91" stroke-width="0.7" stroke-linecap="round" stroke-linejoin="round"/>
</svg>
