<svg width="62" height="62" viewBox="0 0 62 62" fill="none" xmlns="http://www.w3.org/2000/svg">
<path d="M61 30.9951C61 31.6284 60.9802 32.2519 60.9406 32.8753C60.8417 34.4884 60.6141 36.0717 60.2677 37.6155C59.8619 39.4067 59.2979 41.1385 58.5952 42.7912C58.1004 43.9391 57.5364 45.0574 56.9129 46.1262C56.1806 47.383 55.3592 48.5705 54.4587 49.7086C53.9045 50.4112 53.3107 51.0841 52.6972 51.7274C52.0242 52.4399 51.3117 53.1128 50.5596 53.7561C49.8768 54.3399 49.1643 54.904 48.432 55.4285C45.7897 57.3088 42.8407 58.7833 39.6541 59.7333C38.6942 60.0203 37.7145 60.2677 36.715 60.4557C34.8644 60.812 32.9644 61 31.0049 61C30.5893 61 30.1836 61 29.7778 60.9703C20.0302 60.5844 11.4899 55.5374 6.29441 48.0064C2.94953 43.1771 1 37.3187 1 30.9951C1 14.429 14.429 1 30.9951 1C47.5611 1 60.9901 14.429 60.9901 30.9951H61Z" fill="white" stroke="#8D8E91" stroke-width="0.7" stroke-linecap="round" stroke-linejoin="round"/>
<path d="M51.0359 41.4356V38.5262C51.0359 38.3085 50.8775 38.1303 50.6598 38.1006L49.116 37.9225C48.9379 37.9027 48.7993 37.7741 48.7499 37.6058C48.542 36.824 48.2353 36.0818 47.8394 35.399C47.7504 35.2506 47.7603 35.0526 47.8691 34.9141L48.829 33.6969C48.9676 33.5286 48.9478 33.2812 48.7994 33.1328L46.741 31.0744C46.5925 30.926 46.3451 30.9062 46.1769 31.0447L44.9597 32.0046C44.8211 32.1135 44.6331 32.1234 44.4748 32.0343C43.7919 31.6385 43.0497 31.3317 42.2679 31.114C42.0997 31.0645 41.971 30.926 41.9513 30.7478L41.7731 29.2139C41.7533 28.9962 41.5653 28.8379 41.3476 28.8379H38.4381C38.2204 28.8379 38.0423 28.9962 38.0126 29.2139L37.8345 30.7478C37.8147 30.926 37.686 31.0645 37.5178 31.114C36.736 31.3218 35.9938 31.6385 35.311 32.0343C35.1625 32.1234 34.9646 32.1135 34.8261 32.0046L33.6187 31.0447C33.4505 30.9062 33.2031 30.926 33.0547 31.0744L30.9963 33.1328C30.8478 33.2812 30.828 33.5286 30.9666 33.6969L31.9265 34.9141C32.0354 35.0526 32.0453 35.2407 31.9562 35.399C31.5604 36.0818 31.2536 36.824 31.0458 37.6058C30.9963 37.7741 30.8577 37.9027 30.6796 37.9225L29.1358 38.1006C28.9181 38.1204 28.7598 38.3085 28.7598 38.5262V41.4356C28.7598 41.6533 28.9181 41.8315 29.1358 41.8611L30.6796 42.0393C30.8577 42.0591 30.9963 42.1877 31.0458 42.356C31.2536 43.1377 31.5604 43.8799 31.9562 44.5628C32.0453 44.7112 32.0354 44.9091 31.9265 45.0477L30.9567 46.2649C30.8182 46.4331 30.8379 46.6805 30.9864 46.829L33.0448 48.8874C33.1932 49.0358 33.4406 49.0556 33.6088 48.9171L34.836 47.9472C34.9745 47.8384 35.1625 47.8285 35.3209 47.9176C36.0037 48.3134 36.7459 48.6202 37.5178 48.828C37.686 48.8775 37.8147 49.016 37.8345 49.1941L38.0126 50.7478C38.0324 50.9655 38.2204 51.1239 38.4381 51.1239H41.3476C41.5653 51.1239 41.7434 50.9655 41.7731 50.7478L41.9513 49.1941C41.971 49.016 42.0997 48.8775 42.2679 48.828C43.0497 48.6202 43.782 48.3134 44.4649 47.9176C44.6133 47.8285 44.8112 47.8384 44.9498 47.9472L46.1769 48.9171C46.3451 49.0556 46.5925 49.0358 46.741 48.8874L48.7994 46.829C48.9478 46.6805 48.9676 46.4331 48.829 46.2649L47.8592 45.0378C47.7504 44.8992 47.7405 44.7112 47.8295 44.5529C48.2254 43.8701 48.5322 43.1278 48.74 42.356C48.7895 42.1877 48.928 42.0591 49.1061 42.0393L50.6499 41.8611C50.8676 41.8414 51.026 41.6533 51.026 41.4356H51.0359Z" fill="white" stroke="#8D8E91" stroke-width="0.7" stroke-linecap="round" stroke-linejoin="round"/>
<path d="M46.1969 39.9803C46.1969 42.5731 44.6235 44.7997 42.3869 45.7596C41.6249 46.0862 40.7937 46.2643 39.9129 46.2643C39.0322 46.2643 38.2009 46.0862 37.4389 45.7596C35.2024 44.7997 33.6289 42.5731 33.6289 39.9803C33.6289 36.5068 36.4394 33.6963 39.9129 33.6963C43.3864 33.6963 46.1969 36.5068 46.1969 39.9803Z" fill="white" stroke="#8D8E91" stroke-width="0.7" stroke-linecap="round" stroke-linejoin="round"/>
<path d="M42.3374 39.9812C42.3374 38.6452 41.2488 37.5566 39.9128 37.5566C38.5768 37.5566 37.4883 38.6452 37.4883 39.9812C37.4883 41.3172 38.5768 42.4057 39.9128 42.4057C41.2488 42.4057 42.3374 41.3172 42.3374 39.9812Z" fill="#E1251B"/>
<path d="M50.106 25.0972V14.0234H10.957V49.5405H26.7116" stroke="#8D8E91" stroke-width="0.7" stroke-linecap="round" stroke-linejoin="round"/>
<path d="M21.0139 24.6517C22.1671 24.6517 23.1019 23.7169 23.1019 22.5637C23.1019 21.4104 22.1671 20.4756 21.0139 20.4756C19.8606 20.4756 18.9258 21.4104 18.9258 22.5637C18.9258 23.7169 19.8606 24.6517 21.0139 24.6517Z" stroke="#8D8E91" stroke-width="0.7" stroke-linecap="round" stroke-linejoin="round"/>
<path d="M24.4861 29.0262C23.5262 29.7684 22.3189 30.2137 21.0126 30.2137C19.7063 30.2137 18.499 29.7684 17.5391 29.0262C17.5786 27.1459 19.1224 25.6318 21.0126 25.6318C22.9027 25.6318 24.4465 27.1459 24.4861 29.0262Z" stroke="#8D8E91" stroke-width="0.7" stroke-linecap="round" stroke-linejoin="round"/>
<path d="M26.7128 24.5128C26.7128 26.3535 25.8419 27.9863 24.4862 29.0254C23.5263 29.7676 22.3189 30.2129 21.0126 30.2129C19.7064 30.2129 18.499 29.7676 17.5391 29.0254C16.1834 27.9863 15.3125 26.3535 15.3125 24.5128C15.3125 21.3559 17.8657 18.8027 21.0126 18.8027C24.1596 18.8027 26.7128 21.3559 26.7128 24.5128Z" stroke="#8D8E91" stroke-width="0.7" stroke-linecap="round" stroke-linejoin="round"/>
<path d="M30.5312 20.4756H45.1577" stroke="#8D8E91" stroke-width="0.7" stroke-linecap="round" stroke-linejoin="round"/>
<path d="M30.5312 23.7021H45.1577" stroke="#8D8E91" stroke-width="0.7" stroke-linecap="round" stroke-linejoin="round"/>
<path d="M30.5312 26.9375H34.8855" stroke="#8D8E91" stroke-width="0.7" stroke-linecap="round" stroke-linejoin="round"/>
<path d="M14.4707 34.3398V43.751" stroke="#8D8E91" stroke-width="0.7" stroke-linecap="round" stroke-linejoin="round"/>
<path d="M19.0312 34.3398V43.751" stroke="#8D8E91" stroke-width="0.7" stroke-linecap="round" stroke-linejoin="round"/>
<path d="M23.5859 34.3398V43.751" stroke="#8D8E91" stroke-width="0.7" stroke-linecap="round" stroke-linejoin="round"/>
<path d="M14.4707 34.3398H27.6622" stroke="#8D8E91" stroke-width="0.7" stroke-linecap="round" stroke-linejoin="round"/>
<path d="M14.4707 39.0498H25.871" stroke="#8D8E91" stroke-width="0.7" stroke-linecap="round" stroke-linejoin="round"/>
<path d="M14.4707 43.7509H25.871" stroke="#8D8E91" stroke-width="0.7" stroke-linecap="round" stroke-linejoin="round"/>
</svg>
