<svg width="62" height="62" viewBox="0 0 62 62" fill="none" xmlns="http://www.w3.org/2000/svg">
<path d="M61 31C61 39.0369 57.8431 46.3415 52.6873 51.7258C52.0144 52.4385 51.3018 53.1115 50.5497 53.7549C49.8669 54.3388 49.1544 54.903 48.4221 55.4276C43.5136 58.9314 37.4968 61 31.0049 61C20.7526 61 11.7076 55.8532 6.29441 48.0142C2.94953 43.1841 1 37.3246 1 31C1 14.4312 14.429 1 30.9951 1C47.5611 1 60.9901 14.4312 60.9901 31H61Z" fill="white" stroke="#8D8E91" stroke-width="0.7" stroke-linecap="round" stroke-linejoin="round"/>
<path d="M35.8419 52.0721C43.9472 52.0721 50.5178 45.5004 50.5178 37.3938C50.5178 29.2872 43.9472 22.7155 35.8419 22.7155C27.7366 22.7155 21.166 29.2872 21.166 37.3938C21.166 45.5004 27.7366 52.0721 35.8419 52.0721Z" stroke="#8D8E91" stroke-width="0.7" stroke-linecap="round" stroke-linejoin="round"/>
<path d="M35.8425 49.4498C42.4994 49.4498 47.8959 44.0524 47.8959 37.3944C47.8959 30.7364 42.4994 25.339 35.8425 25.339C29.1856 25.339 23.7891 30.7364 23.7891 37.3944C23.7891 44.0524 29.1856 49.4498 35.8425 49.4498Z" stroke="#8D8E91" stroke-width="0.7" stroke-linecap="round" stroke-linejoin="round"/>
<path d="M49.5685 54.2704L45.5605 50.2619L48.9549 46.8669L53.0915 51.0141" stroke="#8D8E91" stroke-width="0.7" stroke-linecap="round" stroke-linejoin="round"/>
<path d="M46.0579 49.766L45.0879 48.796" stroke="#8D8E91" stroke-width="0.7" stroke-linecap="round" stroke-linejoin="round"/>
<path d="M48.4507 47.3714L47.4609 46.3717" stroke="#8D8E91" stroke-width="0.7" stroke-linecap="round" stroke-linejoin="round"/>
<path d="M39.5843 15.0851C39.5843 13.7489 38.4955 12.6602 37.1593 12.6602C35.8231 12.6602 34.7344 13.7489 34.7344 15.0851C34.7344 16.4213 35.8231 17.51 37.1593 17.51C38.4955 17.51 39.5843 16.4213 39.5843 15.0851Z" fill="#E1251B"/>
<path d="M21.8908 23.7567C25.416 23.7567 28.2738 20.8985 28.2738 17.3727C28.2738 13.8469 25.416 10.9886 21.8908 10.9886C18.3656 10.9886 15.5078 13.8469 15.5078 17.3727C15.5078 20.8985 18.3656 23.7567 21.8908 23.7567Z" stroke="#8D8E91" stroke-width="0.7" stroke-linecap="round" stroke-linejoin="round"/>
<path d="M25.4237 26.5671C24.3153 26.2009 23.1278 25.993 21.9007 25.993C15.7453 25.993 10.7676 30.9815 10.7676 37.128V44.9274C10.7676 46.3131 11.8957 47.4414 13.2812 47.4414C14.6666 47.4414 15.7948 46.3131 15.7948 44.9274V36.4351" stroke="#8D8E91" stroke-width="0.7" stroke-linecap="round" stroke-linejoin="round"/>
<path d="M14.8164 46.9077V52.0347" stroke="#8D8E91" stroke-width="0.7" stroke-linecap="round" stroke-linejoin="round"/>
<path d="M40.9609 31.7229H30.7383V41.9473H40.9609V31.7229Z" stroke="#8D8E91" stroke-width="0.7" stroke-linecap="round" stroke-linejoin="round"/>
<path d="M33.3105 35.4936L35.8444 39.1458L38.7048 34.1178" stroke="#8D8E91" stroke-width="0.7" stroke-linecap="round" stroke-linejoin="round"/>
</svg>
