<svg width="52" height="52" viewBox="0 0 52 52" fill="none" xmlns="http://www.w3.org/2000/svg">
<path d="M51 25.9963C51 32.6966 48.365 38.7794 44.0725 43.2671C43.51 43.8646 42.9125 44.4271 42.295 44.9597C41.725 45.4497 41.13 45.9147 40.5175 46.3548C36.425 49.2774 31.4125 51 25.9975 51C18.7625 51 12.2425 47.9248 7.67751 43.0121C6.85251 42.127 6.09251 41.1795 5.40501 40.1795C5.18251 39.8569 4.96501 39.5244 4.75751 39.1894C2.37501 35.3617 1 30.8415 1 25.9988C1 12.1881 12.19 1 25.9975 1C32.4475 1 38.3275 3.44014 42.76 7.45283C43.385 8.01286 43.9775 8.60539 44.54 9.23042C45.9475 10.783 47.16 12.5106 48.14 14.3807C49.965 17.8483 51 21.7986 51 25.9963Z" stroke="#D0D4D9" stroke-width="0.5" stroke-miterlimit="10" stroke-linejoin="bevel"/>
<path d="M36.1825 35.0563C36.1825 33.9413 35.28 33.0388 34.165 33.0388C33.05 33.0388 32.1475 33.9413 32.1475 35.0563C32.1475 36.1713 33.05 37.0738 34.165 37.0738C35.28 37.0738 36.1825 36.1713 36.1825 35.0563Z" fill="#E1251B"/>
<path d="M38.1602 41.5171H9.31772C8.54022 41.5171 7.90771 40.8871 7.90771 40.107V20.4311C7.90771 19.6535 8.53772 19.021 9.31772 19.021H38.1577C38.9352 19.021 39.5677 19.651 39.5677 20.4311V40.107C39.5677 40.8871 38.9377 41.5171 38.1602 41.5171Z" stroke="#D0D4D9" stroke-width="0.5" stroke-miterlimit="10" stroke-linejoin="bevel"/>
<path d="M9.8623 19.1107V15.9282C9.8623 15.2957 10.3748 14.7832 11.0073 14.7832H21.3548C21.6598 14.7832 21.9498 14.9032 22.1648 15.1182L23.5223 16.4757C23.9048 16.8582 24.4248 17.0732 24.9673 17.0732H34.8173C35.3598 17.0732 35.8798 17.2882 36.2623 17.6707L37.6573 19.0657" stroke="#D0D4D9" stroke-width="0.5" stroke-miterlimit="10" stroke-linejoin="bevel"/>
<path d="M13.0024 24.4587H28.5349" stroke="#D0D4D9" stroke-width="0.5" stroke-miterlimit="10" stroke-linejoin="bevel"/>
<path d="M13.0024 26.6638H25.9874" stroke="#D0D4D9" stroke-width="0.5" stroke-miterlimit="10" stroke-linejoin="bevel"/>
<path d="M17.1733 14.7836V13.6835C17.1733 12.816 17.8783 12.116 18.7458 12.116H18.9558H19.2983H44.2408H44.4509C45.3184 12.116 46.0183 12.8185 46.0183 13.6835V29.7218V31.0369C46.0183 31.9044 45.3159 32.6045 44.4509 32.6045H39.5683" stroke="#D0D4D9" stroke-width="0.5" stroke-miterlimit="10" stroke-linejoin="bevel"/>
<path d="M18.9536 12.1906V9.29062C18.9536 8.71312 19.4211 8.24561 19.9986 8.24561H29.4261C29.7036 8.24561 29.9686 8.35563 30.1636 8.55063L31.4011 9.78812C31.7511 10.1381 32.2236 10.3331 32.7186 10.3331H41.6936C42.1886 10.3331 42.6611 10.5281 43.0111 10.8781L44.2836 12.1506" stroke="#D0D4D9" stroke-width="0.5" stroke-miterlimit="10" stroke-linejoin="bevel"/>
<path d="M46.0174 29.7211H46.5699C47.4399 29.7211 48.1424 29.0186 48.1424 28.1485V14.3753C47.1624 12.5053 45.9499 10.7777 44.5424 9.2251H30.8374" stroke="#D0D4D9" stroke-width="0.5" stroke-miterlimit="10" stroke-linejoin="bevel"/>
<path d="M21.0747 8.24515V6.40265C21.0747 5.82515 21.5422 5.35767 22.1197 5.35767H31.5447C31.8222 5.35767 32.0872 5.47016 32.2822 5.66516L33.5197 6.90265C33.8672 7.25015 34.3422 7.44766 34.8372 7.44766H42.7597" stroke="#D0D4D9" stroke-width="0.5" stroke-miterlimit="10" stroke-linejoin="bevel"/>
</svg>
