<svg width="101" height="102" viewBox="0 0 101 102" fill="none" xmlns="http://www.w3.org/2000/svg">
<path d="M100.5 51C100.5 64.4 95.24 76.56 86.64 85.54C86.48 85.72 86.3 85.9 86.12 86.08C85.3 86.92 84.44 87.72 83.56 88.5C83.4 88.64 83.24 88.78 83.08 88.92C81.94 89.9 80.76 90.84 79.52 91.7C77.08 93.44 74.48 94.98 71.74 96.26C65.28 99.3 58.08 101 50.48 101C42.88 101 35.68 99.3 29.22 96.28C24.9 94.26 20.94 91.62 17.4 88.5C16.52 87.72 15.66 86.92 14.84 86.08C12.8 84.02 10.94 81.76 9.28 79.36C3.76 71.3 0.5 61.54 0.5 51C0.5 23.38 22.88 1 50.5 1C78.12 1 100.5 23.38 100.5 51Z" fill="#1A222C" stroke="#8D8E91" stroke-width="0.7" stroke-linecap="round" stroke-linejoin="round"/>
<path d="M94.0595 59.9753C94.0595 57.7553 92.2595 55.9353 90.0195 55.9353C87.7795 55.9353 85.9795 57.7353 85.9795 59.9753C85.9795 62.2153 87.7795 64.0153 90.0195 64.0153C92.2595 64.0153 94.0595 62.2153 94.0595 59.9753Z" fill="#E1251B"/>
<path d="M50.5002 58.2394C58.1217 58.2394 64.3002 52.0609 64.3002 44.4394C64.3002 36.8179 58.1217 30.6394 50.5002 30.6394C42.8787 30.6394 36.7002 36.8179 36.7002 44.4394C36.7002 52.0609 42.8787 58.2394 50.5002 58.2394Z" stroke="#8D8E91" stroke-width="0.7" stroke-linecap="round" stroke-linejoin="round"/>
<path d="M28.5591 89.2977V83.3177C28.5591 71.1977 38.3791 61.3777 50.4991 61.3777C62.6191 61.3777 72.4391 71.1977 72.4391 83.3177V91.3177" stroke="#8D8E91" stroke-width="0.7" stroke-linecap="round" stroke-linejoin="round"/>
<path d="M70.7813 74.945L72.8813 76.745L81.0213 68.625L76.1013 62.865C78.1613 59.765 79.6813 56.265 80.5013 52.505L88.1213 51.905V40.405L80.6013 39.825C79.8413 36.045 78.3613 32.525 76.3213 29.405L81.3013 23.565L73.1813 15.445L67.3813 20.405C64.2813 18.385 60.8013 16.905 57.0813 16.125L56.4613 8.34497H44.9813L44.3613 16.125C40.6814 16.905 37.2414 18.345 34.1814 20.325L28.1414 15.145L20.0014 23.285L25.1614 29.305C23.2014 32.345 21.7414 35.725 20.9414 39.365L12.9014 39.985V51.485L20.8414 52.105C21.6014 55.765 23.0014 59.165 24.9214 62.225L19.7014 68.325L27.8414 76.465L30.5814 74.125M37.7014 65.525C31.3814 61.305 27.2214 54.105 27.2214 45.945C27.2214 32.965 37.7414 22.445 50.7213 22.445C63.7013 22.445 74.2213 32.965 74.2213 45.945C74.2213 54.205 69.9613 61.485 63.5013 65.665" stroke="#8D8E91" stroke-width="0.7" stroke-linecap="round" stroke-linejoin="round"/>
<path d="M49.4391 61.4766L45.5391 82.8165L50.4991 88.1165" stroke="#8D8E91" stroke-width="0.7" stroke-linecap="round" stroke-linejoin="round"/>
<path d="M51.56 61.4766L55.46 82.8165L50.5 88.1165" stroke="#8D8E91" stroke-width="0.7" stroke-linecap="round" stroke-linejoin="round"/>
</svg>
