<svg width="61" height="62" viewBox="0 0 61 62" fill="none" xmlns="http://www.w3.org/2000/svg">
<path d="M30.5 61C47.0685 61 60.5 47.5685 60.5 31C60.5 14.4315 47.0685 1 30.5 1C13.9315 1 0.5 14.4315 0.5 31C0.5 47.5685 13.9315 61 30.5 61Z" fill="#E7ECF3" stroke="#8D8E91" stroke-width="0.7" stroke-linejoin="bevel"/>
<path d="M52.5143 34.4882V27.7581L48.1174 27.4144C47.6664 25.2022 46.803 23.1426 45.6165 21.3099L48.5326 17.9002L43.7741 13.1417L40.3768 16.0469C38.5661 14.8631 36.5299 13.9996 34.3438 13.5363L33.9877 8.98682H27.2576L26.9015 13.5363C24.7457 13.9941 22.7356 14.8411 20.9442 16.0001L17.3997 12.9699L12.6412 17.7283L15.6605 21.2604C14.5056 23.0299 13.6573 25.0166 13.1884 27.1463L8.48633 27.5134V34.2435L13.1307 34.6064C13.5693 36.7458 14.3942 38.7421 15.523 40.5281L12.468 44.1014L17.2265 48.8599L20.7297 45.8654C22.506 47.0491 24.5065 47.9208 26.6527 48.4089L27.0129 53.0148H33.743L34.0949 48.5161C36.2893 48.0844 38.3365 47.2485 40.1623 46.0922L43.6023 49.0331L48.3608 44.2746L45.4804 40.9062C46.693 39.0899 47.5798 37.04 48.0624 34.836L52.5157 34.4882H52.5143Z" stroke="#8D8E91" stroke-width="0.7" stroke-linecap="round" stroke-linejoin="round"/>
<path d="M17.8984 31.802L28.6115 25.3428L44.079 29.8084L33.436 36.423L17.8984 31.802Z" stroke="#8D8E91" stroke-width="0.7" stroke-linecap="round" stroke-linejoin="round"/>
<path d="M22.9668 33.5317V35.8387C22.9668 35.8387 25.0566 38.7989 31.344 38.7989C37.6313 38.7989 39.0708 35.0124 39.0708 35.0124V32.9487" stroke="#8D8E91" stroke-width="0.7" stroke-linecap="round" stroke-linejoin="round"/>
<path d="M33.4922 36.4712V40.6742" stroke="#8D8E91" stroke-width="0.7" stroke-linecap="round" stroke-linejoin="round"/>
<path d="M33.5419 40.6738C34.3379 40.6738 34.9855 41.32 34.9855 42.1175V43.9749C34.9855 44.1234 34.8645 44.243 34.7174 44.243H32.3677C32.2192 44.243 32.0996 44.122 32.0996 43.9749V42.1175C32.0996 41.3214 32.7458 40.6738 33.5432 40.6738H33.5419Z" stroke="#8D8E91" stroke-width="0.7" stroke-linecap="round" stroke-linejoin="round"/>
<path d="M25.3689 22.1222C25.3689 20.7968 24.2937 19.7217 22.967 19.7217C21.6402 19.7217 20.5664 20.7968 20.5664 22.1222C20.5664 23.4476 21.6416 24.5228 22.967 24.5228C24.2923 24.5228 25.3689 23.4476 25.3689 22.1222Z" fill="#E1251B"/>
</svg>
